<mxfile host="app.diagrams.net" modified="2020-07-22T07:14:02.391Z" agent="5.0 (Macintosh; Intel Mac OS X 10_14_0) AppleWebKit/537.36 (KHTML, like Gecko) Chrome/84.0.4147.89 Safari/537.36" etag="dBFD2CuDjuUai1J9fuGp" version="13.4.5" type="github" pages="3">
  <diagram id="gAt-9Gm0yhOiKPh7kjHq" name="提交订单">
    <mxGraphModel dx="1980" dy="1305" grid="0" gridSize="10" guides="1" tooltips="1" connect="1" arrows="1" fold="1" page="0" pageScale="1" pageWidth="827" pageHeight="1169" math="0" shadow="0">
      <root>
        <mxCell id="0" />
        <mxCell id="1" parent="0" />
        <mxCell id="vg4i-4gwripDsBsRWcko-1" value="订单中心&lt;br&gt;管理前台" style="shape=umlFrame;whiteSpace=wrap;html=1;labelBackgroundColor=none;fontSize=12;width=91;height=37;fontColor=#333333;swimlaneFillColor=none;strokeWidth=2;dashed=1;strokeColor=#67AB9F;" vertex="1" parent="1">
          <mxGeometry x="320" y="-10" width="318" height="1374" as="geometry" />
        </mxCell>
        <mxCell id="vg4i-4gwripDsBsRWcko-2" value="" style="shape=umlLifeline;participant=umlActor;perimeter=lifelinePerimeter;whiteSpace=wrap;html=1;container=1;collapsible=0;recursiveResize=0;verticalAlign=top;spacingTop=36;outlineConnect=0;labelBackgroundColor=none;fontSize=12;size=40;" vertex="1" parent="1">
          <mxGeometry x="40" y="40" width="20" height="1327" as="geometry" />
        </mxCell>
        <mxCell id="jK4DNSi2ChgV_M22fzrw-1" value="" style="html=1;points=[];perimeter=orthogonalPerimeter;" vertex="1" parent="vg4i-4gwripDsBsRWcko-2">
          <mxGeometry x="5" y="75" width="10" height="1120" as="geometry" />
        </mxCell>
        <mxCell id="vg4i-4gwripDsBsRWcko-3" value=":乡村美宿&lt;br&gt;业务系统" style="shape=umlLifeline;perimeter=lifelinePerimeter;whiteSpace=wrap;html=1;container=1;collapsible=0;recursiveResize=0;outlineConnect=0;labelBackgroundColor=none;fontSize=12;" vertex="1" parent="1">
          <mxGeometry x="160" y="45" width="100" height="1322" as="geometry" />
        </mxCell>
        <mxCell id="vg4i-4gwripDsBsRWcko-4" value="" style="html=1;points=[];perimeter=orthogonalPerimeter;labelBackgroundColor=none;fontSize=12;" vertex="1" parent="vg4i-4gwripDsBsRWcko-3">
          <mxGeometry x="45" y="75" width="10" height="1099" as="geometry" />
        </mxCell>
        <mxCell id="vg4i-4gwripDsBsRWcko-5" value="提交订单" style="html=1;verticalAlign=bottom;endArrow=block;entryX=0;entryY=0;strokeColor=#000000;strokeWidth=1;fontSize=12;" edge="1" parent="1" source="vg4i-4gwripDsBsRWcko-2" target="vg4i-4gwripDsBsRWcko-4">
          <mxGeometry relative="1" as="geometry">
            <mxPoint x="135" y="230" as="sourcePoint" />
          </mxGeometry>
        </mxCell>
        <mxCell id="vg4i-4gwripDsBsRWcko-6" value="返回订单信息和paycode" style="html=1;verticalAlign=bottom;endArrow=open;dashed=1;endSize=8;exitX=0;exitY=0.95;strokeColor=#000000;strokeWidth=1;fontSize=12;" edge="1" parent="1">
          <mxGeometry x="-0.0096" relative="1" as="geometry">
            <mxPoint x="49.5" y="1206.699999999999" as="targetPoint" />
            <mxPoint x="205" y="1206.699999999999" as="sourcePoint" />
            <mxPoint as="offset" />
          </mxGeometry>
        </mxCell>
        <mxCell id="vg4i-4gwripDsBsRWcko-7" value=":业务&lt;br&gt;分发工厂" style="shape=umlLifeline;perimeter=lifelinePerimeter;whiteSpace=wrap;html=1;container=1;collapsible=0;recursiveResize=0;outlineConnect=0;labelBackgroundColor=none;fontSize=12;" vertex="1" parent="1">
          <mxGeometry x="330" y="45" width="100" height="1322" as="geometry" />
        </mxCell>
        <mxCell id="vg4i-4gwripDsBsRWcko-8" value="" style="html=1;points=[];perimeter=orthogonalPerimeter;labelBackgroundColor=none;fontSize=12;" vertex="1" parent="vg4i-4gwripDsBsRWcko-7">
          <mxGeometry x="45" y="75" width="10" height="694" as="geometry" />
        </mxCell>
        <mxCell id="vg4i-4gwripDsBsRWcko-9" value="构建编排器" style="edgeStyle=none;rounded=0;orthogonalLoop=1;jettySize=auto;html=1;strokeColor=#000000;strokeWidth=1;fontSize=12;entryX=1.103;entryY=0.175;entryDx=0;entryDy=0;entryPerimeter=0;" edge="1" parent="vg4i-4gwripDsBsRWcko-7">
          <mxGeometry x="-0.4203" y="-36" relative="1" as="geometry">
            <mxPoint x="56" y="105" as="sourcePoint" />
            <mxPoint x="57.02999999999997" y="136.125" as="targetPoint" />
            <Array as="points">
              <mxPoint x="76" y="105" />
              <mxPoint x="76" y="135" />
            </Array>
            <mxPoint x="70" y="11" as="offset" />
          </mxGeometry>
        </mxCell>
        <mxCell id="vg4i-4gwripDsBsRWcko-10" value="" style="html=1;points=[];perimeter=orthogonalPerimeter;labelBackgroundColor=none;fontSize=12;" vertex="1" parent="vg4i-4gwripDsBsRWcko-7">
          <mxGeometry x="45" y="923" width="10" height="259" as="geometry" />
        </mxCell>
        <mxCell id="vg4i-4gwripDsBsRWcko-11" style="edgeStyle=none;rounded=0;orthogonalLoop=1;jettySize=auto;html=1;endArrow=openThin;endFill=0;strokeColor=#000000;strokeWidth=1;fontSize=12;" edge="1" parent="vg4i-4gwripDsBsRWcko-7">
          <mxGeometry relative="1" as="geometry">
            <mxPoint x="55" y="955" as="sourcePoint" />
            <mxPoint x="55" y="990" as="targetPoint" />
            <Array as="points">
              <mxPoint x="75" y="955" />
              <mxPoint x="75" y="990" />
            </Array>
          </mxGeometry>
        </mxCell>
        <mxCell id="vg4i-4gwripDsBsRWcko-12" value="构建编排器" style="edgeLabel;html=1;align=center;verticalAlign=middle;resizable=0;points=[];fontSize=12;" vertex="1" connectable="0" parent="vg4i-4gwripDsBsRWcko-11">
          <mxGeometry x="-0.1074" y="-1" relative="1" as="geometry">
            <mxPoint x="39" y="1.67" as="offset" />
          </mxGeometry>
        </mxCell>
        <mxCell id="vg4i-4gwripDsBsRWcko-13" style="edgeStyle=none;rounded=0;orthogonalLoop=1;jettySize=auto;html=1;strokeColor=#000000;strokeWidth=1;fontSize=12;" edge="1" parent="1" target="vg4i-4gwripDsBsRWcko-7">
          <mxGeometry relative="1" as="geometry">
            <mxPoint x="215" y="137.5" as="sourcePoint" />
            <mxPoint x="392" y="138" as="targetPoint" />
          </mxGeometry>
        </mxCell>
        <mxCell id="vg4i-4gwripDsBsRWcko-14" value="创建订单" style="edgeLabel;html=1;align=center;verticalAlign=middle;resizable=0;points=[];fontSize=12;" vertex="1" connectable="0" parent="vg4i-4gwripDsBsRWcko-13">
          <mxGeometry x="-0.1003" relative="1" as="geometry">
            <mxPoint x="-12.37" y="-17.5" as="offset" />
          </mxGeometry>
        </mxCell>
        <mxCell id="vg4i-4gwripDsBsRWcko-15" value=":乡村美宿&lt;br&gt;编排器" style="shape=umlLifeline;perimeter=lifelinePerimeter;whiteSpace=wrap;html=1;container=1;collapsible=0;recursiveResize=0;outlineConnect=0;labelBackgroundColor=none;fontSize=12;" vertex="1" parent="1">
          <mxGeometry x="490" y="40" width="100" height="1326" as="geometry" />
        </mxCell>
        <mxCell id="vg4i-4gwripDsBsRWcko-16" value="" style="html=1;points=[];perimeter=orthogonalPerimeter;labelBackgroundColor=none;fontSize=12;" vertex="1" parent="vg4i-4gwripDsBsRWcko-15">
          <mxGeometry x="45" y="160" width="10" height="601" as="geometry" />
        </mxCell>
        <mxCell id="vg4i-4gwripDsBsRWcko-17" value="" style="html=1;points=[];perimeter=orthogonalPerimeter;labelBackgroundColor=none;fontSize=12;" vertex="1" parent="vg4i-4gwripDsBsRWcko-15">
          <mxGeometry x="45" y="1001" width="10" height="139" as="geometry" />
        </mxCell>
        <mxCell id="CdKLxBeLla3y-J0h16OE-45" value="" style="html=1;points=[];perimeter=orthogonalPerimeter;" vertex="1" parent="vg4i-4gwripDsBsRWcko-15">
          <mxGeometry x="45" y="777" width="10" height="186" as="geometry" />
        </mxCell>
        <mxCell id="vg4i-4gwripDsBsRWcko-18" style="edgeStyle=none;rounded=0;orthogonalLoop=1;jettySize=auto;html=1;strokeColor=#000000;strokeWidth=1;fontSize=12;" edge="1" parent="1" target="vg4i-4gwripDsBsRWcko-16">
          <mxGeometry relative="1" as="geometry">
            <mxPoint x="383" y="203" as="sourcePoint" />
            <mxPoint x="603.4300000000001" y="202.79999999999995" as="targetPoint" />
          </mxGeometry>
        </mxCell>
        <mxCell id="vg4i-4gwripDsBsRWcko-19" value="创建订单" style="edgeLabel;html=1;align=center;verticalAlign=middle;resizable=0;points=[];fontSize=12;" vertex="1" connectable="0" parent="vg4i-4gwripDsBsRWcko-18">
          <mxGeometry x="0.0801" y="3" relative="1" as="geometry">
            <mxPoint y="-8.8" as="offset" />
          </mxGeometry>
        </mxCell>
        <mxCell id="vg4i-4gwripDsBsRWcko-20" value=":商品中心" style="shape=umlLifeline;perimeter=lifelinePerimeter;whiteSpace=wrap;html=1;container=1;collapsible=0;recursiveResize=0;outlineConnect=0;labelBackgroundColor=none;fontSize=12;" vertex="1" parent="1">
          <mxGeometry x="920" y="40" width="100" height="1329" as="geometry" />
        </mxCell>
        <mxCell id="vg4i-4gwripDsBsRWcko-21" value="" style="html=1;points=[];perimeter=orthogonalPerimeter;labelBackgroundColor=none;fontSize=12;" vertex="1" parent="vg4i-4gwripDsBsRWcko-20">
          <mxGeometry x="45" y="180" width="10" height="43" as="geometry" />
        </mxCell>
        <mxCell id="CdKLxBeLla3y-J0h16OE-15" value="" style="html=1;points=[];perimeter=orthogonalPerimeter;labelBackgroundColor=none;fontSize=12;" vertex="1" parent="vg4i-4gwripDsBsRWcko-20">
          <mxGeometry x="45" y="231" width="10" height="36" as="geometry" />
        </mxCell>
        <mxCell id="vg4i-4gwripDsBsRWcko-22" style="edgeStyle=none;rounded=0;orthogonalLoop=1;jettySize=auto;html=1;strokeColor=#000000;strokeWidth=1;fontSize=12;exitX=0.2;exitY=0.087;exitDx=0;exitDy=0;exitPerimeter=0;" edge="1" parent="1">
          <mxGeometry relative="1" as="geometry">
            <mxPoint x="537.0000000000005" y="221.49900000000002" as="sourcePoint" />
            <mxPoint x="969.5" y="221.49900000000002" as="targetPoint" />
          </mxGeometry>
        </mxCell>
        <mxCell id="vg4i-4gwripDsBsRWcko-23" value="查看商品信息" style="edgeLabel;html=1;align=center;verticalAlign=middle;resizable=0;points=[];fontSize=12;" vertex="1" connectable="0" parent="vg4i-4gwripDsBsRWcko-22">
          <mxGeometry x="-0.0185" y="1" relative="1" as="geometry">
            <mxPoint x="170.99999999999997" y="-11" as="offset" />
          </mxGeometry>
        </mxCell>
        <mxCell id="vg4i-4gwripDsBsRWcko-24" style="edgeStyle=none;rounded=0;orthogonalLoop=1;jettySize=auto;html=1;strokeColor=#000000;strokeWidth=1;fontSize=12;endArrow=openThin;endFill=0;dashed=1;exitX=-0.027;exitY=0.789;exitDx=0;exitDy=0;exitPerimeter=0;" edge="1" parent="1">
          <mxGeometry relative="1" as="geometry">
            <mxPoint x="964.73" y="251.9269999999999" as="sourcePoint" />
            <mxPoint x="545" y="251.9269999999999" as="targetPoint" />
          </mxGeometry>
        </mxCell>
        <mxCell id="vg4i-4gwripDsBsRWcko-25" value="返回商品信息" style="edgeLabel;html=1;align=center;verticalAlign=middle;resizable=0;points=[];fontSize=12;" vertex="1" connectable="0" parent="vg4i-4gwripDsBsRWcko-24">
          <mxGeometry x="-0.3028" y="-1" relative="1" as="geometry">
            <mxPoint x="-231.06000000000003" y="-11.43" as="offset" />
          </mxGeometry>
        </mxCell>
        <mxCell id="vg4i-4gwripDsBsRWcko-26" value=":订单中心" style="shape=umlLifeline;perimeter=lifelinePerimeter;whiteSpace=wrap;html=1;container=1;collapsible=0;recursiveResize=0;outlineConnect=0;labelBackgroundColor=none;fontSize=12;" vertex="1" parent="1">
          <mxGeometry x="671" y="40" width="100" height="1329" as="geometry" />
        </mxCell>
        <mxCell id="vg4i-4gwripDsBsRWcko-27" value="" style="html=1;points=[];perimeter=orthogonalPerimeter;labelBackgroundColor=none;fontSize=12;" vertex="1" parent="vg4i-4gwripDsBsRWcko-26">
          <mxGeometry x="45" y="508" width="10" height="236" as="geometry" />
        </mxCell>
        <mxCell id="vg4i-4gwripDsBsRWcko-28" value="" style="html=1;points=[];perimeter=orthogonalPerimeter;labelBackgroundColor=none;fontSize=12;" vertex="1" parent="vg4i-4gwripDsBsRWcko-26">
          <mxGeometry x="45" y="1018" width="10" height="55" as="geometry" />
        </mxCell>
        <mxCell id="CdKLxBeLla3y-J0h16OE-3" value="" style="html=1;points=[];perimeter=orthogonalPerimeter;labelBackgroundColor=none;fontSize=12;" vertex="1" parent="vg4i-4gwripDsBsRWcko-26">
          <mxGeometry x="45" y="402" width="10" height="43" as="geometry" />
        </mxCell>
        <mxCell id="CdKLxBeLla3y-J0h16OE-30" style="edgeStyle=none;rounded=0;orthogonalLoop=1;jettySize=auto;html=1;entryX=1.056;entryY=0.474;entryDx=0;entryDy=0;entryPerimeter=0;" edge="1" parent="vg4i-4gwripDsBsRWcko-26">
          <mxGeometry relative="1" as="geometry">
            <mxPoint x="55" y="581" as="sourcePoint" />
            <mxPoint x="55.559999999999945" y="603.28" as="targetPoint" />
            <Array as="points">
              <mxPoint x="75" y="581" />
              <mxPoint x="75" y="603" />
            </Array>
          </mxGeometry>
        </mxCell>
        <mxCell id="CdKLxBeLla3y-J0h16OE-31" value="创建扩展单据（物流、押金）" style="edgeLabel;html=1;align=center;verticalAlign=middle;resizable=0;points=[];" vertex="1" connectable="0" parent="CdKLxBeLla3y-J0h16OE-30">
          <mxGeometry x="-0.4667" y="-12" relative="1" as="geometry">
            <mxPoint x="86" y="-3" as="offset" />
          </mxGeometry>
        </mxCell>
        <mxCell id="CdKLxBeLla3y-J0h16OE-37" style="edgeStyle=none;rounded=0;orthogonalLoop=1;jettySize=auto;html=1;" edge="1" parent="vg4i-4gwripDsBsRWcko-26">
          <mxGeometry relative="1" as="geometry">
            <mxPoint x="48" y="662" as="sourcePoint" />
            <mxPoint x="48" y="687" as="targetPoint" />
            <Array as="points">
              <mxPoint x="75" y="662" />
              <mxPoint x="75" y="687" />
            </Array>
          </mxGeometry>
        </mxCell>
        <mxCell id="CdKLxBeLla3y-J0h16OE-38" value="发布领域事件" style="edgeLabel;html=1;align=center;verticalAlign=middle;resizable=0;points=[];" vertex="1" connectable="0" parent="CdKLxBeLla3y-J0h16OE-37">
          <mxGeometry x="-0.3165" y="-11" relative="1" as="geometry">
            <mxPoint x="51" y="10.33" as="offset" />
          </mxGeometry>
        </mxCell>
        <mxCell id="vg4i-4gwripDsBsRWcko-29" style="edgeStyle=none;rounded=0;orthogonalLoop=1;jettySize=auto;html=1;endArrow=openThin;endFill=0;strokeColor=#000000;strokeWidth=1;fontSize=12;exitX=1.046;exitY=0.344;exitDx=0;exitDy=0;exitPerimeter=0;" edge="1" parent="1" target="vg4i-4gwripDsBsRWcko-27">
          <mxGeometry relative="1" as="geometry">
            <mxPoint x="545.46" y="547.44" as="sourcePoint" />
            <mxPoint x="722" y="558" as="targetPoint" />
          </mxGeometry>
        </mxCell>
        <mxCell id="vg4i-4gwripDsBsRWcko-30" value="创建交易" style="edgeLabel;html=1;align=center;verticalAlign=middle;resizable=0;points=[];fontSize=12;" vertex="1" connectable="0" parent="vg4i-4gwripDsBsRWcko-29">
          <mxGeometry x="0.4298" relative="1" as="geometry">
            <mxPoint y="-10.440000000000001" as="offset" />
          </mxGeometry>
        </mxCell>
        <mxCell id="vg4i-4gwripDsBsRWcko-31" style="edgeStyle=none;rounded=0;orthogonalLoop=1;jettySize=auto;html=1;endArrow=openThin;endFill=0;strokeColor=#000000;strokeWidth=1;fontSize=12;" edge="1" parent="1">
          <mxGeometry relative="1" as="geometry">
            <mxPoint x="720.5" y="563" as="sourcePoint" />
            <mxPoint x="720.5" y="593" as="targetPoint" />
            <Array as="points">
              <mxPoint x="740" y="563" />
              <mxPoint x="740" y="593" />
            </Array>
          </mxGeometry>
        </mxCell>
        <mxCell id="vg4i-4gwripDsBsRWcko-32" value="创建订单" style="edgeLabel;html=1;align=center;verticalAlign=middle;resizable=0;points=[];fontSize=12;" vertex="1" connectable="0" parent="vg4i-4gwripDsBsRWcko-31">
          <mxGeometry x="-0.3926" y="2" relative="1" as="geometry">
            <mxPoint x="25.999999999999993" y="13.5" as="offset" />
          </mxGeometry>
        </mxCell>
        <mxCell id="vg4i-4gwripDsBsRWcko-33" style="edgeStyle=none;rounded=0;orthogonalLoop=1;jettySize=auto;html=1;endArrow=openThin;endFill=0;strokeColor=#000000;strokeWidth=1;fontSize=12;" edge="1" parent="1">
          <mxGeometry relative="1" as="geometry">
            <mxPoint x="720.5" y="662" as="sourcePoint" />
            <mxPoint x="720.5" y="692" as="targetPoint" />
            <Array as="points">
              <mxPoint x="744" y="662" />
              <mxPoint x="744" y="692" />
            </Array>
          </mxGeometry>
        </mxCell>
        <mxCell id="vg4i-4gwripDsBsRWcko-34" value="创建支付单" style="edgeLabel;html=1;align=center;verticalAlign=middle;resizable=0;points=[];fontSize=12;" vertex="1" connectable="0" parent="vg4i-4gwripDsBsRWcko-33">
          <mxGeometry x="-0.3926" y="2" relative="1" as="geometry">
            <mxPoint x="32" y="15.83" as="offset" />
          </mxGeometry>
        </mxCell>
        <mxCell id="vg4i-4gwripDsBsRWcko-35" style="edgeStyle=none;rounded=0;orthogonalLoop=1;jettySize=auto;html=1;endArrow=openThin;endFill=0;strokeColor=#000000;strokeWidth=1;fontSize=12;dashed=1;entryX=0.122;entryY=0.829;entryDx=0;entryDy=0;entryPerimeter=0;" edge="1" parent="1">
          <mxGeometry relative="1" as="geometry">
            <mxPoint x="720.5" y="774.54" as="sourcePoint" />
            <mxPoint x="536.22" y="774.54" as="targetPoint" />
          </mxGeometry>
        </mxCell>
        <mxCell id="vg4i-4gwripDsBsRWcko-36" value="返回交易信息" style="edgeLabel;html=1;align=center;verticalAlign=middle;resizable=0;points=[];fontSize=12;" vertex="1" connectable="0" parent="vg4i-4gwripDsBsRWcko-35">
          <mxGeometry x="-0.458" y="-1" relative="1" as="geometry">
            <mxPoint y="-9" as="offset" />
          </mxGeometry>
        </mxCell>
        <mxCell id="vg4i-4gwripDsBsRWcko-37" style="edgeStyle=none;rounded=0;orthogonalLoop=1;jettySize=auto;html=1;dashed=1;endArrow=openThin;endFill=0;strokeColor=#000000;strokeWidth=1;fontSize=12;" edge="1" parent="1">
          <mxGeometry relative="1" as="geometry">
            <mxPoint x="539.5" y="787.5" as="sourcePoint" />
            <mxPoint x="385" y="787.5" as="targetPoint" />
          </mxGeometry>
        </mxCell>
        <mxCell id="vg4i-4gwripDsBsRWcko-38" value="返回订单" style="edgeLabel;html=1;align=center;verticalAlign=middle;resizable=0;points=[];fontSize=12;" vertex="1" connectable="0" parent="vg4i-4gwripDsBsRWcko-37">
          <mxGeometry x="-0.1452" y="-2" relative="1" as="geometry">
            <mxPoint x="-13.46" y="-8" as="offset" />
          </mxGeometry>
        </mxCell>
        <mxCell id="vg4i-4gwripDsBsRWcko-39" style="edgeStyle=none;rounded=0;orthogonalLoop=1;jettySize=auto;html=1;dashed=1;endArrow=openThin;endFill=0;strokeColor=#000000;strokeWidth=1;fontSize=12;" edge="1" parent="1">
          <mxGeometry relative="1" as="geometry">
            <mxPoint x="379.5" y="802.5" as="sourcePoint" />
            <mxPoint x="209.4473684210525" y="802.5" as="targetPoint" />
          </mxGeometry>
        </mxCell>
        <mxCell id="vg4i-4gwripDsBsRWcko-40" value="返回订单信息" style="edgeLabel;html=1;align=center;verticalAlign=middle;resizable=0;points=[];fontSize=12;" vertex="1" connectable="0" parent="vg4i-4gwripDsBsRWcko-39">
          <mxGeometry x="0.0218" y="-1" relative="1" as="geometry">
            <mxPoint x="-41" y="-14.5" as="offset" />
          </mxGeometry>
        </mxCell>
        <mxCell id="vg4i-4gwripDsBsRWcko-41" style="edgeStyle=none;rounded=0;orthogonalLoop=1;jettySize=auto;html=1;endArrow=openThin;endFill=0;strokeColor=#000000;strokeWidth=1;fontSize=12;" edge="1" parent="1" target="vg4i-4gwripDsBsRWcko-10">
          <mxGeometry relative="1" as="geometry">
            <mxPoint x="215" y="987.0000000000002" as="sourcePoint" />
            <mxPoint x="410" y="987" as="targetPoint" />
          </mxGeometry>
        </mxCell>
        <mxCell id="vg4i-4gwripDsBsRWcko-42" value="支付订单" style="edgeLabel;html=1;align=center;verticalAlign=middle;resizable=0;points=[];fontSize=12;" vertex="1" connectable="0" parent="vg4i-4gwripDsBsRWcko-41">
          <mxGeometry x="-0.17" y="3" relative="1" as="geometry">
            <mxPoint x="61.33" y="-10" as="offset" />
          </mxGeometry>
        </mxCell>
        <mxCell id="vg4i-4gwripDsBsRWcko-43" value="去支付" style="edgeStyle=none;rounded=0;orthogonalLoop=1;jettySize=auto;html=1;endArrow=openThin;endFill=0;strokeColor=#000000;strokeWidth=1;fontSize=12;" edge="1" parent="1">
          <mxGeometry x="0.0276" y="10" relative="1" as="geometry">
            <mxPoint x="385" y="1047.5" as="sourcePoint" />
            <mxPoint x="535" y="1047.5" as="targetPoint" />
            <mxPoint as="offset" />
          </mxGeometry>
        </mxCell>
        <mxCell id="vg4i-4gwripDsBsRWcko-44" style="edgeStyle=none;rounded=0;orthogonalLoop=1;jettySize=auto;html=1;endArrow=openThin;endFill=0;strokeColor=#000000;strokeWidth=1;fontSize=12;" edge="1" parent="1" source="vg4i-4gwripDsBsRWcko-17">
          <mxGeometry relative="1" as="geometry">
            <mxPoint x="615" y="1068.04" as="sourcePoint" />
            <mxPoint x="721" y="1068" as="targetPoint" />
          </mxGeometry>
        </mxCell>
        <mxCell id="vg4i-4gwripDsBsRWcko-45" value="查看订单信息" style="edgeLabel;html=1;align=center;verticalAlign=middle;resizable=0;points=[];fontSize=12;" vertex="1" connectable="0" parent="vg4i-4gwripDsBsRWcko-44">
          <mxGeometry x="0.1419" y="1" relative="1" as="geometry">
            <mxPoint x="21" y="-9" as="offset" />
          </mxGeometry>
        </mxCell>
        <mxCell id="vg4i-4gwripDsBsRWcko-46" style="edgeStyle=none;rounded=0;orthogonalLoop=1;jettySize=auto;html=1;endArrow=openThin;endFill=0;strokeColor=#000000;strokeWidth=1;fontSize=12;dashed=1;entryX=-0.02;entryY=0.414;entryDx=0;entryDy=0;entryPerimeter=0;" edge="1" parent="1" target="vg4i-4gwripDsBsRWcko-17">
          <mxGeometry relative="1" as="geometry">
            <mxPoint x="721" y="1099" as="sourcePoint" />
            <mxPoint x="615" y="1095.5" as="targetPoint" />
          </mxGeometry>
        </mxCell>
        <mxCell id="vg4i-4gwripDsBsRWcko-47" value="返回订单信息" style="edgeLabel;html=1;align=center;verticalAlign=middle;resizable=0;points=[];fontSize=12;" vertex="1" connectable="0" parent="vg4i-4gwripDsBsRWcko-46">
          <mxGeometry x="-0.4229" y="-3" relative="1" as="geometry">
            <mxPoint x="-81.66999999999999" y="-10.370000000000001" as="offset" />
          </mxGeometry>
        </mxCell>
        <mxCell id="vg4i-4gwripDsBsRWcko-48" value=":支付中心" style="shape=umlLifeline;perimeter=lifelinePerimeter;whiteSpace=wrap;html=1;container=1;collapsible=0;recursiveResize=0;outlineConnect=0;labelBackgroundColor=none;fontSize=12;" vertex="1" parent="1">
          <mxGeometry x="798" y="41" width="100" height="1326" as="geometry" />
        </mxCell>
        <mxCell id="vg4i-4gwripDsBsRWcko-49" value="" style="html=1;points=[];perimeter=orthogonalPerimeter;labelBackgroundColor=none;fontSize=12;" vertex="1" parent="vg4i-4gwripDsBsRWcko-48">
          <mxGeometry x="45" y="1083" width="10" height="40" as="geometry" />
        </mxCell>
        <mxCell id="vg4i-4gwripDsBsRWcko-50" style="edgeStyle=none;rounded=0;orthogonalLoop=1;jettySize=auto;html=1;endArrow=openThin;endFill=0;strokeColor=#000000;strokeWidth=1;fontSize=12;" edge="1" parent="1" source="vg4i-4gwripDsBsRWcko-17" target="vg4i-4gwripDsBsRWcko-49">
          <mxGeometry relative="1" as="geometry">
            <mxPoint x="615" y="1123.64" as="sourcePoint" />
            <mxPoint x="1211.9099999999999" y="1123.64" as="targetPoint" />
          </mxGeometry>
        </mxCell>
        <mxCell id="vg4i-4gwripDsBsRWcko-51" value="创建支付单" style="edgeLabel;html=1;align=center;verticalAlign=middle;resizable=0;points=[];fontSize=12;" vertex="1" connectable="0" parent="vg4i-4gwripDsBsRWcko-50">
          <mxGeometry x="0.799" relative="1" as="geometry">
            <mxPoint x="-10" y="-11" as="offset" />
          </mxGeometry>
        </mxCell>
        <mxCell id="vg4i-4gwripDsBsRWcko-52" style="edgeStyle=none;rounded=0;orthogonalLoop=1;jettySize=auto;html=1;dashed=1;endArrow=openThin;endFill=0;strokeColor=#000000;strokeWidth=1;fontSize=12;entryX=-0.02;entryY=0.807;entryDx=0;entryDy=0;entryPerimeter=0;" edge="1" parent="1" target="vg4i-4gwripDsBsRWcko-17">
          <mxGeometry relative="1" as="geometry">
            <mxPoint x="849" y="1153" as="sourcePoint" />
            <mxPoint x="616" y="1151" as="targetPoint" />
          </mxGeometry>
        </mxCell>
        <mxCell id="vg4i-4gwripDsBsRWcko-53" value="返回paycode" style="edgeLabel;html=1;align=center;verticalAlign=middle;resizable=0;points=[];fontSize=12;" vertex="1" connectable="0" parent="vg4i-4gwripDsBsRWcko-52">
          <mxGeometry x="-0.7406" relative="1" as="geometry">
            <mxPoint x="-224.67000000000004" y="-13.02" as="offset" />
          </mxGeometry>
        </mxCell>
        <mxCell id="vg4i-4gwripDsBsRWcko-54" value="返回paycode" style="edgeStyle=none;rounded=0;orthogonalLoop=1;jettySize=auto;html=1;entryX=1.173;entryY=0.785;entryDx=0;entryDy=0;entryPerimeter=0;endArrow=openThin;endFill=0;strokeColor=#000000;strokeWidth=1;fontSize=12;dashed=1;" edge="1" parent="1" source="vg4i-4gwripDsBsRWcko-17" target="vg4i-4gwripDsBsRWcko-10">
          <mxGeometry x="0.0092" y="-9" relative="1" as="geometry">
            <mxPoint as="offset" />
          </mxGeometry>
        </mxCell>
        <mxCell id="vg4i-4gwripDsBsRWcko-55" style="edgeStyle=none;rounded=0;orthogonalLoop=1;jettySize=auto;html=1;entryX=0.201;entryY=0.845;entryDx=0;entryDy=0;entryPerimeter=0;endArrow=openThin;endFill=0;strokeColor=#000000;strokeWidth=1;fontSize=12;dashed=1;" edge="1" parent="1">
          <mxGeometry relative="1" as="geometry">
            <mxPoint x="375" y="1182.27" as="sourcePoint" />
            <mxPoint x="207.01" y="1182.27" as="targetPoint" />
          </mxGeometry>
        </mxCell>
        <mxCell id="vg4i-4gwripDsBsRWcko-56" value="返回paycode" style="edgeLabel;html=1;align=center;verticalAlign=middle;resizable=0;points=[];fontSize=12;" vertex="1" connectable="0" parent="vg4i-4gwripDsBsRWcko-55">
          <mxGeometry x="0.5051" y="-2" relative="1" as="geometry">
            <mxPoint x="7" y="-12.27" as="offset" />
          </mxGeometry>
        </mxCell>
        <mxCell id="CdKLxBeLla3y-J0h16OE-1" value=":促销中心" style="shape=umlLifeline;perimeter=lifelinePerimeter;whiteSpace=wrap;html=1;container=1;collapsible=0;recursiveResize=0;outlineConnect=0;labelBackgroundColor=none;fontSize=12;" vertex="1" parent="1">
          <mxGeometry x="1039" y="39" width="100" height="1322" as="geometry" />
        </mxCell>
        <mxCell id="CdKLxBeLla3y-J0h16OE-2" value="" style="html=1;points=[];perimeter=orthogonalPerimeter;labelBackgroundColor=none;fontSize=12;" vertex="1" parent="CdKLxBeLla3y-J0h16OE-1">
          <mxGeometry x="45" y="448" width="10" height="43" as="geometry" />
        </mxCell>
        <mxCell id="CdKLxBeLla3y-J0h16OE-4" style="edgeStyle=none;rounded=0;orthogonalLoop=1;jettySize=auto;html=1;" edge="1" parent="1">
          <mxGeometry relative="1" as="geometry">
            <mxPoint x="545" y="449.5" as="sourcePoint" />
            <mxPoint x="720.5" y="449.5" as="targetPoint" />
          </mxGeometry>
        </mxCell>
        <mxCell id="CdKLxBeLla3y-J0h16OE-6" value="试单" style="edgeLabel;html=1;align=center;verticalAlign=middle;resizable=0;points=[];" vertex="1" connectable="0" parent="CdKLxBeLla3y-J0h16OE-4">
          <mxGeometry x="0.0993" y="3" relative="1" as="geometry">
            <mxPoint x="51" y="-7.5" as="offset" />
          </mxGeometry>
        </mxCell>
        <mxCell id="CdKLxBeLla3y-J0h16OE-5" style="edgeStyle=none;rounded=0;orthogonalLoop=1;jettySize=auto;html=1;entryX=0.446;entryY=0.306;entryDx=0;entryDy=0;entryPerimeter=0;dashed=1;" edge="1" parent="1">
          <mxGeometry relative="1" as="geometry">
            <mxPoint x="716" y="475.12200000000007" as="sourcePoint" />
            <mxPoint x="539.46" y="475.12200000000007" as="targetPoint" />
          </mxGeometry>
        </mxCell>
        <mxCell id="CdKLxBeLla3y-J0h16OE-7" value="返回订单信息" style="edgeLabel;html=1;align=center;verticalAlign=middle;resizable=0;points=[];" vertex="1" connectable="0" parent="CdKLxBeLla3y-J0h16OE-5">
          <mxGeometry x="0.5129" y="-1" relative="1" as="geometry">
            <mxPoint x="-1" y="-9.12" as="offset" />
          </mxGeometry>
        </mxCell>
        <mxCell id="CdKLxBeLla3y-J0h16OE-8" style="edgeStyle=none;rounded=0;orthogonalLoop=1;jettySize=auto;html=1;" edge="1" parent="1">
          <mxGeometry relative="1" as="geometry">
            <mxPoint x="545" y="496.5" as="sourcePoint" />
            <mxPoint x="1088.5" y="496.5" as="targetPoint" />
          </mxGeometry>
        </mxCell>
        <mxCell id="CdKLxBeLla3y-J0h16OE-9" value="优惠计算" style="edgeLabel;html=1;align=center;verticalAlign=middle;resizable=0;points=[];" vertex="1" connectable="0" parent="CdKLxBeLla3y-J0h16OE-8">
          <mxGeometry x="0.6767" y="3" relative="1" as="geometry">
            <mxPoint x="29" y="-6.5" as="offset" />
          </mxGeometry>
        </mxCell>
        <mxCell id="CdKLxBeLla3y-J0h16OE-10" style="edgeStyle=none;rounded=0;orthogonalLoop=1;jettySize=auto;html=1;dashed=1;" edge="1" parent="1">
          <mxGeometry relative="1" as="geometry">
            <mxPoint x="1084" y="521.5" as="sourcePoint" />
            <mxPoint x="545" y="521.5" as="targetPoint" />
          </mxGeometry>
        </mxCell>
        <mxCell id="CdKLxBeLla3y-J0h16OE-11" value="优惠返回" style="edgeLabel;html=1;align=center;verticalAlign=middle;resizable=0;points=[];" vertex="1" connectable="0" parent="CdKLxBeLla3y-J0h16OE-10">
          <mxGeometry x="0.829" y="-3" relative="1" as="geometry">
            <mxPoint x="-1" y="-7" as="offset" />
          </mxGeometry>
        </mxCell>
        <mxCell id="CdKLxBeLla3y-J0h16OE-16" style="edgeStyle=none;rounded=0;orthogonalLoop=1;jettySize=auto;html=1;" edge="1" parent="1">
          <mxGeometry relative="1" as="geometry">
            <mxPoint x="545" y="278.5" as="sourcePoint" />
            <mxPoint x="969.5" y="278.5" as="targetPoint" />
          </mxGeometry>
        </mxCell>
        <mxCell id="CdKLxBeLla3y-J0h16OE-17" value="锁定库存" style="edgeLabel;html=1;align=center;verticalAlign=middle;resizable=0;points=[];" vertex="1" connectable="0" parent="CdKLxBeLla3y-J0h16OE-16">
          <mxGeometry x="0.7857" y="2" relative="1" as="geometry">
            <mxPoint x="2.14" y="-7.5" as="offset" />
          </mxGeometry>
        </mxCell>
        <mxCell id="CdKLxBeLla3y-J0h16OE-18" style="edgeStyle=none;rounded=0;orthogonalLoop=1;jettySize=auto;html=1;dashed=1;" edge="1" parent="1">
          <mxGeometry relative="1" as="geometry">
            <mxPoint x="965" y="302.5" as="sourcePoint" />
            <mxPoint x="545" y="302.5" as="targetPoint" />
          </mxGeometry>
        </mxCell>
        <mxCell id="CdKLxBeLla3y-J0h16OE-19" value="锁定结果返回" style="edgeLabel;html=1;align=center;verticalAlign=middle;resizable=0;points=[];" vertex="1" connectable="0" parent="CdKLxBeLla3y-J0h16OE-18">
          <mxGeometry x="0.8681" y="-2" relative="1" as="geometry">
            <mxPoint x="19.57" y="-10.5" as="offset" />
          </mxGeometry>
        </mxCell>
        <mxCell id="CdKLxBeLla3y-J0h16OE-20" value=":物流服务" style="shape=umlLifeline;perimeter=lifelinePerimeter;whiteSpace=wrap;html=1;container=1;collapsible=0;recursiveResize=0;outlineConnect=0;labelBackgroundColor=none;fontSize=12;" vertex="1" parent="1">
          <mxGeometry x="1169" y="40" width="100" height="1325" as="geometry" />
        </mxCell>
        <mxCell id="CdKLxBeLla3y-J0h16OE-21" value="" style="html=1;points=[];perimeter=orthogonalPerimeter;labelBackgroundColor=none;fontSize=12;" vertex="1" parent="CdKLxBeLla3y-J0h16OE-20">
          <mxGeometry x="45" y="283" width="10" height="43" as="geometry" />
        </mxCell>
        <mxCell id="CdKLxBeLla3y-J0h16OE-50" value="" style="html=1;points=[];perimeter=orthogonalPerimeter;labelBackgroundColor=none;fontSize=12;" vertex="1" parent="CdKLxBeLla3y-J0h16OE-20">
          <mxGeometry x="45" y="848" width="10" height="48" as="geometry" />
        </mxCell>
        <mxCell id="CdKLxBeLla3y-J0h16OE-22" value=":押金服务" style="shape=umlLifeline;perimeter=lifelinePerimeter;whiteSpace=wrap;html=1;container=1;collapsible=0;recursiveResize=0;outlineConnect=0;labelBackgroundColor=none;fontSize=12;" vertex="1" parent="1">
          <mxGeometry x="1298" y="40" width="100" height="1335" as="geometry" />
        </mxCell>
        <mxCell id="CdKLxBeLla3y-J0h16OE-23" value="" style="html=1;points=[];perimeter=orthogonalPerimeter;labelBackgroundColor=none;fontSize=12;" vertex="1" parent="CdKLxBeLla3y-J0h16OE-22">
          <mxGeometry x="45" y="350" width="10" height="43" as="geometry" />
        </mxCell>
        <mxCell id="CdKLxBeLla3y-J0h16OE-58" value="" style="html=1;points=[];perimeter=orthogonalPerimeter;labelBackgroundColor=none;fontSize=12;" vertex="1" parent="CdKLxBeLla3y-J0h16OE-22">
          <mxGeometry x="45" y="909" width="10" height="48" as="geometry" />
        </mxCell>
        <mxCell id="CdKLxBeLla3y-J0h16OE-24" value="&lt;h1&gt;备注说明&lt;/h1&gt;&lt;p&gt;保险是商品&lt;/p&gt;&lt;p&gt;1、订单支付单两个聚合跟一次事务&lt;/p&gt;&lt;p&gt;2、扩展单据异步问题，询价为主，是否有占用和锁定，如果有是否商品化&lt;/p&gt;&lt;p&gt;3、领域事件实现方式&lt;/p&gt;&lt;p&gt;4、试单 =》 主体商品订单信息和扩展单据&lt;/p&gt;" style="text;html=1;strokeColor=none;fillColor=none;spacing=5;spacingTop=-20;whiteSpace=wrap;overflow=hidden;rounded=0;" vertex="1" parent="1">
          <mxGeometry x="1541" y="573" width="551" height="213" as="geometry" />
        </mxCell>
        <mxCell id="CdKLxBeLla3y-J0h16OE-26" style="edgeStyle=none;rounded=0;orthogonalLoop=1;jettySize=auto;html=1;entryX=0.212;entryY=0.471;entryDx=0;entryDy=0;entryPerimeter=0;" edge="1" parent="1">
          <mxGeometry relative="1" as="geometry">
            <mxPoint x="545" y="333.25300000000016" as="sourcePoint" />
            <mxPoint x="1216.12" y="333.25300000000016" as="targetPoint" />
          </mxGeometry>
        </mxCell>
        <mxCell id="CdKLxBeLla3y-J0h16OE-28" value="询价" style="edgeLabel;html=1;align=center;verticalAlign=middle;resizable=0;points=[];" vertex="1" connectable="0" parent="CdKLxBeLla3y-J0h16OE-26">
          <mxGeometry x="0.8552" y="5" relative="1" as="geometry">
            <mxPoint x="12.33" y="-5.25" as="offset" />
          </mxGeometry>
        </mxCell>
        <mxCell id="CdKLxBeLla3y-J0h16OE-27" style="edgeStyle=none;rounded=0;orthogonalLoop=1;jettySize=auto;html=1;dashed=1;" edge="1" parent="1">
          <mxGeometry relative="1" as="geometry">
            <mxPoint x="1214" y="358.5" as="sourcePoint" />
            <mxPoint x="545" y="358.5" as="targetPoint" />
          </mxGeometry>
        </mxCell>
        <mxCell id="CdKLxBeLla3y-J0h16OE-29" value="返回费用信息" style="edgeLabel;html=1;align=center;verticalAlign=middle;resizable=0;points=[];" vertex="1" connectable="0" parent="CdKLxBeLla3y-J0h16OE-27">
          <mxGeometry x="0.8819" y="-2" relative="1" as="geometry">
            <mxPoint x="9.33" y="-7.5" as="offset" />
          </mxGeometry>
        </mxCell>
        <mxCell id="CdKLxBeLla3y-J0h16OE-32" style="edgeStyle=none;rounded=0;orthogonalLoop=1;jettySize=auto;html=1;" edge="1" parent="1">
          <mxGeometry relative="1" as="geometry">
            <mxPoint x="545" y="398.5" as="sourcePoint" />
            <mxPoint x="1347.5" y="398.5" as="targetPoint" />
          </mxGeometry>
        </mxCell>
        <mxCell id="CdKLxBeLla3y-J0h16OE-33" value="&lt;b&gt;&lt;font color=&quot;#ea6b66&quot;&gt;询价（所有插件扩展类功能同理、物流同、分开是为了强调和演示）&lt;/font&gt;&lt;/b&gt;" style="edgeLabel;html=1;align=center;verticalAlign=middle;resizable=0;points=[];" vertex="1" connectable="0" parent="CdKLxBeLla3y-J0h16OE-32">
          <mxGeometry x="0.8868" y="6" relative="1" as="geometry">
            <mxPoint x="-148.32999999999998" y="-7.5" as="offset" />
          </mxGeometry>
        </mxCell>
        <mxCell id="CdKLxBeLla3y-J0h16OE-34" style="edgeStyle=none;rounded=0;orthogonalLoop=1;jettySize=auto;html=1;dashed=1;" edge="1" parent="1">
          <mxGeometry relative="1" as="geometry">
            <mxPoint x="1343" y="430.5" as="sourcePoint" />
            <mxPoint x="545" y="430.5" as="targetPoint" />
          </mxGeometry>
        </mxCell>
        <mxCell id="CdKLxBeLla3y-J0h16OE-35" value="返回费用信息" style="edgeLabel;html=1;align=center;verticalAlign=middle;resizable=0;points=[];" vertex="1" connectable="0" parent="CdKLxBeLla3y-J0h16OE-34">
          <mxGeometry x="0.9171" y="-3" relative="1" as="geometry">
            <mxPoint x="7.33" y="-10.5" as="offset" />
          </mxGeometry>
        </mxCell>
        <mxCell id="CdKLxBeLla3y-J0h16OE-39" value=":消息中心" style="shape=umlLifeline;perimeter=lifelinePerimeter;whiteSpace=wrap;html=1;container=1;collapsible=0;recursiveResize=0;outlineConnect=0;labelBackgroundColor=none;fontSize=12;" vertex="1" parent="1">
          <mxGeometry x="1424" y="39" width="100" height="1334" as="geometry" />
        </mxCell>
        <mxCell id="CdKLxBeLla3y-J0h16OE-40" value="" style="html=1;points=[];perimeter=orthogonalPerimeter;labelBackgroundColor=none;fontSize=12;" vertex="1" parent="CdKLxBeLla3y-J0h16OE-39">
          <mxGeometry x="45" y="693" width="10" height="35" as="geometry" />
        </mxCell>
        <mxCell id="CdKLxBeLla3y-J0h16OE-44" value="" style="html=1;points=[];perimeter=orthogonalPerimeter;labelBackgroundColor=none;fontSize=12;" vertex="1" parent="CdKLxBeLla3y-J0h16OE-39">
          <mxGeometry x="45" y="787" width="10" height="48" as="geometry" />
        </mxCell>
        <mxCell id="CdKLxBeLla3y-J0h16OE-41" style="edgeStyle=none;rounded=0;orthogonalLoop=1;jettySize=auto;html=1;" edge="1" parent="1">
          <mxGeometry relative="1" as="geometry">
            <mxPoint x="726" y="740" as="sourcePoint" />
            <mxPoint x="1473.5" y="740" as="targetPoint" />
          </mxGeometry>
        </mxCell>
        <mxCell id="CdKLxBeLla3y-J0h16OE-42" value="本地事务入库后发布消息中心" style="edgeLabel;html=1;align=center;verticalAlign=middle;resizable=0;points=[];" vertex="1" connectable="0" parent="CdKLxBeLla3y-J0h16OE-41">
          <mxGeometry x="0.721" y="3" relative="1" as="geometry">
            <mxPoint x="5.329999999999998" y="-13" as="offset" />
          </mxGeometry>
        </mxCell>
        <mxCell id="CdKLxBeLla3y-J0h16OE-43" style="edgeStyle=none;rounded=0;orthogonalLoop=1;jettySize=auto;html=1;dashed=1;" edge="1" parent="1">
          <mxGeometry relative="1" as="geometry">
            <mxPoint x="1469" y="759.5" as="sourcePoint" />
            <mxPoint x="720.1666666666665" y="759.5" as="targetPoint" />
          </mxGeometry>
        </mxCell>
        <mxCell id="CdKLxBeLla3y-J0h16OE-46" style="edgeStyle=none;rounded=0;orthogonalLoop=1;jettySize=auto;html=1;" edge="1" parent="1" source="CdKLxBeLla3y-J0h16OE-39">
          <mxGeometry relative="1" as="geometry">
            <mxPoint x="1462" y="831.83" as="sourcePoint" />
            <mxPoint x="538" y="831.83" as="targetPoint" />
          </mxGeometry>
        </mxCell>
        <mxCell id="CdKLxBeLla3y-J0h16OE-47" value="消息回调" style="edgeLabel;html=1;align=center;verticalAlign=middle;resizable=0;points=[];" vertex="1" connectable="0" parent="CdKLxBeLla3y-J0h16OE-46">
          <mxGeometry x="0.8787" y="-4" relative="1" as="geometry">
            <mxPoint x="-4" y="-6.83" as="offset" />
          </mxGeometry>
        </mxCell>
        <mxCell id="CdKLxBeLla3y-J0h16OE-48" style="edgeStyle=none;rounded=0;orthogonalLoop=1;jettySize=auto;html=1;dashed=1;" edge="1" parent="1">
          <mxGeometry relative="1" as="geometry">
            <mxPoint x="545" y="867" as="sourcePoint" />
            <mxPoint x="1473.5" y="867" as="targetPoint" />
          </mxGeometry>
        </mxCell>
        <mxCell id="CdKLxBeLla3y-J0h16OE-49" value="确认消息（消息异步消费）" style="edgeLabel;html=1;align=center;verticalAlign=middle;resizable=0;points=[];" vertex="1" connectable="0" parent="CdKLxBeLla3y-J0h16OE-48">
          <mxGeometry x="-0.9121" y="1" relative="1" as="geometry">
            <mxPoint x="36.67" y="-13" as="offset" />
          </mxGeometry>
        </mxCell>
        <mxCell id="CdKLxBeLla3y-J0h16OE-51" style="edgeStyle=none;rounded=0;orthogonalLoop=1;jettySize=auto;html=1;" edge="1" parent="1">
          <mxGeometry relative="1" as="geometry">
            <mxPoint x="545" y="900" as="sourcePoint" />
            <mxPoint x="1218.5" y="900" as="targetPoint" />
          </mxGeometry>
        </mxCell>
        <mxCell id="CdKLxBeLla3y-J0h16OE-52" value="创建物流单" style="edgeLabel;html=1;align=center;verticalAlign=middle;resizable=0;points=[];" vertex="1" connectable="0" parent="CdKLxBeLla3y-J0h16OE-51">
          <mxGeometry x="0.8278" y="1" relative="1" as="geometry">
            <mxPoint x="-1" y="-9" as="offset" />
          </mxGeometry>
        </mxCell>
        <mxCell id="CdKLxBeLla3y-J0h16OE-53" style="edgeStyle=none;rounded=0;orthogonalLoop=1;jettySize=auto;html=1;dashed=1;" edge="1" parent="1">
          <mxGeometry relative="1" as="geometry">
            <mxPoint x="1215" y="929" as="sourcePoint" />
            <mxPoint x="546" y="929" as="targetPoint" />
          </mxGeometry>
        </mxCell>
        <mxCell id="CdKLxBeLla3y-J0h16OE-54" value="返回物流单信息" style="edgeLabel;html=1;align=center;verticalAlign=middle;resizable=0;points=[];" vertex="1" connectable="0" parent="CdKLxBeLla3y-J0h16OE-53">
          <mxGeometry x="0.8575" y="-4" relative="1" as="geometry">
            <mxPoint x="1.33" y="-8.280000000000001" as="offset" />
          </mxGeometry>
        </mxCell>
        <mxCell id="CdKLxBeLla3y-J0h16OE-55" style="edgeStyle=none;rounded=0;orthogonalLoop=1;jettySize=auto;html=1;" edge="1" parent="1">
          <mxGeometry relative="1" as="geometry">
            <mxPoint x="545" y="963" as="sourcePoint" />
            <mxPoint x="1347.5" y="963" as="targetPoint" />
          </mxGeometry>
        </mxCell>
        <mxCell id="CdKLxBeLla3y-J0h16OE-61" value="创建押金单（所有扩展类单据同此）" style="edgeLabel;html=1;align=center;verticalAlign=middle;resizable=0;points=[];" vertex="1" connectable="0" parent="CdKLxBeLla3y-J0h16OE-55">
          <mxGeometry x="0.8297" y="2" relative="1" as="geometry">
            <mxPoint x="-43.67" y="-9" as="offset" />
          </mxGeometry>
        </mxCell>
        <mxCell id="CdKLxBeLla3y-J0h16OE-59" style="edgeStyle=none;rounded=0;orthogonalLoop=1;jettySize=auto;html=1;dashed=1;" edge="1" parent="1">
          <mxGeometry relative="1" as="geometry">
            <mxPoint x="1343" y="993" as="sourcePoint" />
            <mxPoint x="539.1666666666665" y="993" as="targetPoint" />
          </mxGeometry>
        </mxCell>
        <mxCell id="CdKLxBeLla3y-J0h16OE-60" value="返回押金单" style="edgeLabel;html=1;align=center;verticalAlign=middle;resizable=0;points=[];" vertex="1" connectable="0" parent="CdKLxBeLla3y-J0h16OE-59">
          <mxGeometry x="0.8839" y="-1" relative="1" as="geometry">
            <mxPoint x="-4.67" y="-11" as="offset" />
          </mxGeometry>
        </mxCell>
      </root>
    </mxGraphModel>
  </diagram>
  <diagram id="b2lKmSlSZYIz-eqxUc-Y" name="支付订单">
    <mxGraphModel dx="1485" dy="679" grid="0" gridSize="10" guides="1" tooltips="1" connect="1" arrows="1" fold="1" page="0" pageScale="1" pageWidth="827" pageHeight="1169" math="0" shadow="0">
      <root>
        <mxCell id="8MQQOa8CTJbcQH2kje4L-0" />
        <mxCell id="8MQQOa8CTJbcQH2kje4L-1" parent="8MQQOa8CTJbcQH2kje4L-0" />
        <mxCell id="ahgxw3OeHbJRb-oqSajo-90" value=":交易管理前台" style="shape=umlLifeline;perimeter=lifelinePerimeter;whiteSpace=wrap;html=1;container=1;collapsible=0;recursiveResize=0;outlineConnect=0;labelBackgroundColor=none;fontSize=12;" vertex="1" parent="8MQQOa8CTJbcQH2kje4L-1">
          <mxGeometry x="556" y="37" width="100" height="727" as="geometry" />
        </mxCell>
        <mxCell id="ahgxw3OeHbJRb-oqSajo-91" value="" style="html=1;points=[];perimeter=orthogonalPerimeter;" vertex="1" parent="ahgxw3OeHbJRb-oqSajo-90">
          <mxGeometry x="45" y="518" width="10" height="61" as="geometry" />
        </mxCell>
        <mxCell id="ahgxw3OeHbJRb-oqSajo-103" value="" style="html=1;points=[];perimeter=orthogonalPerimeter;" vertex="1" parent="ahgxw3OeHbJRb-oqSajo-90">
          <mxGeometry x="45" y="605" width="10" height="80" as="geometry" />
        </mxCell>
        <mxCell id="ahgxw3OeHbJRb-oqSajo-105" value="更新业务视图" style="edgeStyle=none;rounded=0;orthogonalLoop=1;jettySize=auto;html=1;" edge="1" parent="ahgxw3OeHbJRb-oqSajo-90">
          <mxGeometry x="0.4526" y="-40" relative="1" as="geometry">
            <mxPoint x="50" y="632" as="sourcePoint" />
            <mxPoint x="50" y="675" as="targetPoint" />
            <Array as="points">
              <mxPoint x="76" y="632" />
              <mxPoint x="76" y="675" />
            </Array>
            <mxPoint x="36" y="22" as="offset" />
          </mxGeometry>
        </mxCell>
        <mxCell id="ahgxw3OeHbJRb-oqSajo-1" value="" style="shape=umlLifeline;participant=umlActor;perimeter=lifelinePerimeter;whiteSpace=wrap;html=1;container=1;collapsible=0;recursiveResize=0;verticalAlign=top;spacingTop=36;outlineConnect=0;labelBackgroundColor=none;fontSize=12;size=40;" vertex="1" parent="8MQQOa8CTJbcQH2kje4L-1">
          <mxGeometry x="204" y="37" width="20" height="712" as="geometry" />
        </mxCell>
        <mxCell id="ahgxw3OeHbJRb-oqSajo-2" value="" style="html=1;points=[];perimeter=orthogonalPerimeter;" vertex="1" parent="ahgxw3OeHbJRb-oqSajo-1">
          <mxGeometry x="5" y="75" width="10" height="202" as="geometry" />
        </mxCell>
        <mxCell id="ahgxw3OeHbJRb-oqSajo-67" value="" style="html=1;points=[];perimeter=orthogonalPerimeter;" vertex="1" parent="ahgxw3OeHbJRb-oqSajo-1">
          <mxGeometry x="5" y="285" width="10" height="191" as="geometry" />
        </mxCell>
        <mxCell id="ahgxw3OeHbJRb-oqSajo-7" value=":支付网关" style="shape=umlLifeline;perimeter=lifelinePerimeter;whiteSpace=wrap;html=1;container=1;collapsible=0;recursiveResize=0;outlineConnect=0;labelBackgroundColor=none;fontSize=12;" vertex="1" parent="8MQQOa8CTJbcQH2kje4L-1">
          <mxGeometry x="285" y="37" width="100" height="715" as="geometry" />
        </mxCell>
        <mxCell id="ahgxw3OeHbJRb-oqSajo-8" value="" style="html=1;points=[];perimeter=orthogonalPerimeter;labelBackgroundColor=none;fontSize=12;" vertex="1" parent="ahgxw3OeHbJRb-oqSajo-7">
          <mxGeometry x="45" y="75" width="10" height="192" as="geometry" />
        </mxCell>
        <mxCell id="ahgxw3OeHbJRb-oqSajo-76" value="" style="html=1;points=[];perimeter=orthogonalPerimeter;" vertex="1" parent="ahgxw3OeHbJRb-oqSajo-7">
          <mxGeometry x="45" y="435" width="10" height="80" as="geometry" />
        </mxCell>
        <mxCell id="ahgxw3OeHbJRb-oqSajo-106" value="" style="html=1;points=[];perimeter=orthogonalPerimeter;" vertex="1" parent="ahgxw3OeHbJRb-oqSajo-7">
          <mxGeometry x="45" y="295" width="10" height="87" as="geometry" />
        </mxCell>
        <mxCell id="ahgxw3OeHbJRb-oqSajo-13" style="edgeStyle=none;rounded=0;orthogonalLoop=1;jettySize=auto;html=1;strokeColor=#000000;strokeWidth=1;fontSize=12;" edge="1" parent="8MQQOa8CTJbcQH2kje4L-1" target="ahgxw3OeHbJRb-oqSajo-7">
          <mxGeometry relative="1" as="geometry">
            <mxPoint x="215" y="137.5" as="sourcePoint" />
            <mxPoint x="392" y="138" as="targetPoint" />
          </mxGeometry>
        </mxCell>
        <mxCell id="ahgxw3OeHbJRb-oqSajo-14" value="支付订单" style="edgeLabel;html=1;align=center;verticalAlign=middle;resizable=0;points=[];fontSize=12;" vertex="1" connectable="0" parent="ahgxw3OeHbJRb-oqSajo-13">
          <mxGeometry x="-0.1003" relative="1" as="geometry">
            <mxPoint x="11" y="-10.5" as="offset" />
          </mxGeometry>
        </mxCell>
        <mxCell id="ahgxw3OeHbJRb-oqSajo-20" value=":三方支付" style="shape=umlLifeline;perimeter=lifelinePerimeter;whiteSpace=wrap;html=1;container=1;collapsible=0;recursiveResize=0;outlineConnect=0;labelBackgroundColor=none;fontSize=12;" vertex="1" parent="8MQQOa8CTJbcQH2kje4L-1">
          <mxGeometry x="952" y="37" width="100" height="745" as="geometry" />
        </mxCell>
        <mxCell id="ahgxw3OeHbJRb-oqSajo-21" value="" style="html=1;points=[];perimeter=orthogonalPerimeter;labelBackgroundColor=none;fontSize=12;" vertex="1" parent="ahgxw3OeHbJRb-oqSajo-20">
          <mxGeometry x="45" y="402" width="10" height="27" as="geometry" />
        </mxCell>
        <mxCell id="ahgxw3OeHbJRb-oqSajo-75" value="" style="html=1;points=[];perimeter=orthogonalPerimeter;" vertex="1" parent="ahgxw3OeHbJRb-oqSajo-20">
          <mxGeometry x="45" y="442" width="10" height="25" as="geometry" />
        </mxCell>
        <mxCell id="ahgxw3OeHbJRb-oqSajo-111" value="" style="html=1;points=[];perimeter=orthogonalPerimeter;" vertex="1" parent="ahgxw3OeHbJRb-oqSajo-20">
          <mxGeometry x="45" y="312" width="10" height="41" as="geometry" />
        </mxCell>
        <mxCell id="ahgxw3OeHbJRb-oqSajo-26" value=":支付中心" style="shape=umlLifeline;perimeter=lifelinePerimeter;whiteSpace=wrap;html=1;container=1;collapsible=0;recursiveResize=0;outlineConnect=0;labelBackgroundColor=none;fontSize=12;" vertex="1" parent="8MQQOa8CTJbcQH2kje4L-1">
          <mxGeometry x="421" y="37" width="100" height="719" as="geometry" />
        </mxCell>
        <mxCell id="ahgxw3OeHbJRb-oqSajo-57" value="" style="html=1;points=[];perimeter=orthogonalPerimeter;" vertex="1" parent="ahgxw3OeHbJRb-oqSajo-26">
          <mxGeometry x="45" y="111" width="10" height="139" as="geometry" />
        </mxCell>
        <mxCell id="ahgxw3OeHbJRb-oqSajo-60" style="edgeStyle=none;rounded=0;orthogonalLoop=1;jettySize=auto;html=1;" edge="1" parent="ahgxw3OeHbJRb-oqSajo-26">
          <mxGeometry relative="1" as="geometry">
            <mxPoint x="55" y="137.00000000000003" as="sourcePoint" />
            <mxPoint x="49.5" y="174.00000000000003" as="targetPoint" />
            <Array as="points">
              <mxPoint x="75" y="137" />
              <mxPoint x="75" y="174" />
            </Array>
          </mxGeometry>
        </mxCell>
        <mxCell id="ahgxw3OeHbJRb-oqSajo-61" value="查询支付信息" style="edgeLabel;html=1;align=center;verticalAlign=middle;resizable=0;points=[];" vertex="1" connectable="0" parent="ahgxw3OeHbJRb-oqSajo-60">
          <mxGeometry x="-0.4848" y="3" relative="1" as="geometry">
            <mxPoint x="42" y="20.5" as="offset" />
          </mxGeometry>
        </mxCell>
        <mxCell id="ahgxw3OeHbJRb-oqSajo-80" value="" style="html=1;points=[];perimeter=orthogonalPerimeter;" vertex="1" parent="ahgxw3OeHbJRb-oqSajo-26">
          <mxGeometry x="45" y="466" width="10" height="41" as="geometry" />
        </mxCell>
        <mxCell id="ahgxw3OeHbJRb-oqSajo-110" value="" style="html=1;points=[];perimeter=orthogonalPerimeter;" vertex="1" parent="ahgxw3OeHbJRb-oqSajo-26">
          <mxGeometry x="45" y="304" width="10" height="65" as="geometry" />
        </mxCell>
        <mxCell id="ahgxw3OeHbJRb-oqSajo-58" style="edgeStyle=none;rounded=0;orthogonalLoop=1;jettySize=auto;html=1;" edge="1" parent="8MQQOa8CTJbcQH2kje4L-1">
          <mxGeometry relative="1" as="geometry">
            <mxPoint x="335" y="162" as="sourcePoint" />
            <mxPoint x="473" y="162" as="targetPoint" />
          </mxGeometry>
        </mxCell>
        <mxCell id="ahgxw3OeHbJRb-oqSajo-59" value="支付订单" style="edgeLabel;html=1;align=center;verticalAlign=middle;resizable=0;points=[];" vertex="1" connectable="0" parent="ahgxw3OeHbJRb-oqSajo-58">
          <mxGeometry x="0.1738" y="3" relative="1" as="geometry">
            <mxPoint x="-3" y="-7.949999999999999" as="offset" />
          </mxGeometry>
        </mxCell>
        <mxCell id="ahgxw3OeHbJRb-oqSajo-63" style="edgeStyle=none;rounded=0;orthogonalLoop=1;jettySize=auto;html=1;" edge="1" parent="8MQQOa8CTJbcQH2kje4L-1">
          <mxGeometry relative="1" as="geometry">
            <mxPoint x="470.5" y="277" as="sourcePoint" />
            <mxPoint x="330" y="277" as="targetPoint" />
          </mxGeometry>
        </mxCell>
        <mxCell id="ahgxw3OeHbJRb-oqSajo-64" value="返回支付方式列表" style="edgeLabel;html=1;align=center;verticalAlign=middle;resizable=0;points=[];" vertex="1" connectable="0" parent="ahgxw3OeHbJRb-oqSajo-63">
          <mxGeometry x="-0.1165" relative="1" as="geometry">
            <mxPoint x="-7.5" y="-13" as="offset" />
          </mxGeometry>
        </mxCell>
        <mxCell id="ahgxw3OeHbJRb-oqSajo-65" style="edgeStyle=none;rounded=0;orthogonalLoop=1;jettySize=auto;html=1;" edge="1" parent="8MQQOa8CTJbcQH2kje4L-1">
          <mxGeometry relative="1" as="geometry">
            <mxPoint x="330" y="294" as="sourcePoint" />
            <mxPoint x="212" y="294" as="targetPoint" />
          </mxGeometry>
        </mxCell>
        <mxCell id="ahgxw3OeHbJRb-oqSajo-66" value="返回支付方式列表" style="edgeLabel;html=1;align=center;verticalAlign=middle;resizable=0;points=[];" vertex="1" connectable="0" parent="ahgxw3OeHbJRb-oqSajo-65">
          <mxGeometry x="0.0079" y="-1" relative="1" as="geometry">
            <mxPoint x="1" y="-11" as="offset" />
          </mxGeometry>
        </mxCell>
        <mxCell id="ahgxw3OeHbJRb-oqSajo-62" value="加载可用支付方式" style="edgeStyle=none;rounded=0;orthogonalLoop=1;jettySize=auto;html=1;" edge="1" parent="8MQQOa8CTJbcQH2kje4L-1">
          <mxGeometry x="0.4396" y="-58" relative="1" as="geometry">
            <mxPoint x="470.5" y="223" as="sourcePoint" />
            <mxPoint x="470.5" y="263" as="targetPoint" />
            <Array as="points">
              <mxPoint x="496" y="223" />
              <mxPoint x="496" y="263" />
            </Array>
            <mxPoint x="55" y="38" as="offset" />
          </mxGeometry>
        </mxCell>
        <mxCell id="ahgxw3OeHbJRb-oqSajo-71" style="edgeStyle=none;rounded=0;orthogonalLoop=1;jettySize=auto;html=1;entryX=-0.091;entryY=0.252;entryDx=0;entryDy=0;entryPerimeter=0;" edge="1" parent="8MQQOa8CTJbcQH2kje4L-1">
          <mxGeometry relative="1" as="geometry">
            <mxPoint x="996.0900000000001" y="442.616" as="targetPoint" />
            <mxPoint x="219" y="442.616" as="sourcePoint" />
          </mxGeometry>
        </mxCell>
        <mxCell id="ahgxw3OeHbJRb-oqSajo-72" value="支付" style="edgeLabel;html=1;align=center;verticalAlign=middle;resizable=0;points=[];" vertex="1" connectable="0" parent="ahgxw3OeHbJRb-oqSajo-71">
          <mxGeometry x="0.6396" relative="1" as="geometry">
            <mxPoint x="104" y="-10.62" as="offset" />
          </mxGeometry>
        </mxCell>
        <mxCell id="ahgxw3OeHbJRb-oqSajo-73" style="edgeStyle=none;rounded=0;orthogonalLoop=1;jettySize=auto;html=1;" edge="1" parent="8MQQOa8CTJbcQH2kje4L-1">
          <mxGeometry relative="1" as="geometry">
            <mxPoint x="1003" y="463" as="sourcePoint" />
            <mxPoint x="213.5" y="462.5" as="targetPoint" />
          </mxGeometry>
        </mxCell>
        <mxCell id="ahgxw3OeHbJRb-oqSajo-74" value="支付结果" style="edgeLabel;html=1;align=center;verticalAlign=middle;resizable=0;points=[];" vertex="1" connectable="0" parent="ahgxw3OeHbJRb-oqSajo-73">
          <mxGeometry x="0.7374" y="-2" relative="1" as="geometry">
            <mxPoint x="-65.5" y="-8.5" as="offset" />
          </mxGeometry>
        </mxCell>
        <mxCell id="ahgxw3OeHbJRb-oqSajo-77" style="edgeStyle=none;rounded=0;orthogonalLoop=1;jettySize=auto;html=1;" edge="1" parent="8MQQOa8CTJbcQH2kje4L-1">
          <mxGeometry relative="1" as="geometry">
            <mxPoint x="1001.5" y="484" as="sourcePoint" />
            <mxPoint x="335" y="484" as="targetPoint" />
          </mxGeometry>
        </mxCell>
        <mxCell id="ahgxw3OeHbJRb-oqSajo-78" value="支付结果回调" style="edgeLabel;html=1;align=center;verticalAlign=middle;resizable=0;points=[];" vertex="1" connectable="0" parent="ahgxw3OeHbJRb-oqSajo-77">
          <mxGeometry x="-0.2984" y="2" relative="1" as="geometry">
            <mxPoint x="-376.5" y="-12" as="offset" />
          </mxGeometry>
        </mxCell>
        <mxCell id="ahgxw3OeHbJRb-oqSajo-81" style="edgeStyle=none;rounded=0;orthogonalLoop=1;jettySize=auto;html=1;exitX=0.891;exitY=0.536;exitDx=0;exitDy=0;exitPerimeter=0;" edge="1" parent="8MQQOa8CTJbcQH2kje4L-1" source="ahgxw3OeHbJRb-oqSajo-76" target="ahgxw3OeHbJRb-oqSajo-80">
          <mxGeometry relative="1" as="geometry">
            <mxPoint x="340" y="556" as="sourcePoint" />
            <mxPoint x="470.5" y="551" as="targetPoint" />
          </mxGeometry>
        </mxCell>
        <mxCell id="ahgxw3OeHbJRb-oqSajo-82" value="修改支付单状态" style="edgeLabel;html=1;align=center;verticalAlign=middle;resizable=0;points=[];" vertex="1" connectable="0" parent="ahgxw3OeHbJRb-oqSajo-81">
          <mxGeometry x="-0.3089" y="1" relative="1" as="geometry">
            <mxPoint x="7" y="-8" as="offset" />
          </mxGeometry>
        </mxCell>
        <mxCell id="ahgxw3OeHbJRb-oqSajo-83" value=":消息中心" style="shape=umlLifeline;perimeter=lifelinePerimeter;whiteSpace=wrap;html=1;container=1;collapsible=0;recursiveResize=0;outlineConnect=0;labelBackgroundColor=none;fontSize=12;" vertex="1" parent="8MQQOa8CTJbcQH2kje4L-1">
          <mxGeometry x="823" y="37" width="100" height="740" as="geometry" />
        </mxCell>
        <mxCell id="ahgxw3OeHbJRb-oqSajo-87" value="" style="html=1;points=[];perimeter=orthogonalPerimeter;" vertex="1" parent="ahgxw3OeHbJRb-oqSajo-83">
          <mxGeometry x="45" y="484" width="10" height="61" as="geometry" />
        </mxCell>
        <mxCell id="ahgxw3OeHbJRb-oqSajo-100" value="" style="html=1;points=[];perimeter=orthogonalPerimeter;" vertex="1" parent="ahgxw3OeHbJRb-oqSajo-83">
          <mxGeometry x="45" y="579" width="10" height="48" as="geometry" />
        </mxCell>
        <mxCell id="ahgxw3OeHbJRb-oqSajo-88" style="edgeStyle=none;rounded=0;orthogonalLoop=1;jettySize=auto;html=1;" edge="1" parent="8MQQOa8CTJbcQH2kje4L-1">
          <mxGeometry relative="1" as="geometry">
            <mxPoint x="476" y="530.5" as="sourcePoint" />
            <mxPoint x="872.5" y="530.5" as="targetPoint" />
          </mxGeometry>
        </mxCell>
        <mxCell id="ahgxw3OeHbJRb-oqSajo-89" value="消息广播" style="edgeLabel;html=1;align=center;verticalAlign=middle;resizable=0;points=[];" vertex="1" connectable="0" parent="ahgxw3OeHbJRb-oqSajo-88">
          <mxGeometry x="0.0776" relative="1" as="geometry">
            <mxPoint x="133" y="-9.5" as="offset" />
          </mxGeometry>
        </mxCell>
        <mxCell id="ahgxw3OeHbJRb-oqSajo-94" style="edgeStyle=none;rounded=0;orthogonalLoop=1;jettySize=auto;html=1;entryX=0.855;entryY=0.315;entryDx=0;entryDy=0;entryPerimeter=0;" edge="1" parent="8MQQOa8CTJbcQH2kje4L-1" target="ahgxw3OeHbJRb-oqSajo-91">
          <mxGeometry relative="1" as="geometry">
            <mxPoint x="872.5" y="574.2149999999999" as="sourcePoint" />
            <mxPoint x="624.5" y="574.5" as="targetPoint" />
          </mxGeometry>
        </mxCell>
        <mxCell id="ahgxw3OeHbJRb-oqSajo-95" value="消息订阅" style="edgeLabel;html=1;align=center;verticalAlign=middle;resizable=0;points=[];" vertex="1" connectable="0" parent="ahgxw3OeHbJRb-oqSajo-94">
          <mxGeometry x="0.2188" y="-4" relative="1" as="geometry">
            <mxPoint x="-10" y="-6.5" as="offset" />
          </mxGeometry>
        </mxCell>
        <mxCell id="ahgxw3OeHbJRb-oqSajo-96" value=":订单中心" style="shape=umlLifeline;perimeter=lifelinePerimeter;whiteSpace=wrap;html=1;container=1;collapsible=0;recursiveResize=0;outlineConnect=0;labelBackgroundColor=none;fontSize=12;" vertex="1" parent="8MQQOa8CTJbcQH2kje4L-1">
          <mxGeometry x="689" y="37" width="100" height="733" as="geometry" />
        </mxCell>
        <mxCell id="ahgxw3OeHbJRb-oqSajo-97" value="" style="html=1;points=[];perimeter=orthogonalPerimeter;" vertex="1" parent="ahgxw3OeHbJRb-oqSajo-96">
          <mxGeometry x="45" y="561" width="10" height="39" as="geometry" />
        </mxCell>
        <mxCell id="ahgxw3OeHbJRb-oqSajo-98" style="edgeStyle=none;rounded=0;orthogonalLoop=1;jettySize=auto;html=1;" edge="1" parent="8MQQOa8CTJbcQH2kje4L-1" source="ahgxw3OeHbJRb-oqSajo-91">
          <mxGeometry relative="1" as="geometry">
            <mxPoint x="630" y="608.5" as="sourcePoint" />
            <mxPoint x="734" y="609" as="targetPoint" />
          </mxGeometry>
        </mxCell>
        <mxCell id="ahgxw3OeHbJRb-oqSajo-99" value="更新支付单状态" style="edgeLabel;html=1;align=center;verticalAlign=middle;resizable=0;points=[];" vertex="1" connectable="0" parent="ahgxw3OeHbJRb-oqSajo-98">
          <mxGeometry x="0.1618" y="1" relative="1" as="geometry">
            <mxPoint x="-11" y="-10" as="offset" />
          </mxGeometry>
        </mxCell>
        <mxCell id="ahgxw3OeHbJRb-oqSajo-101" value="消息广播" style="edgeStyle=none;rounded=0;orthogonalLoop=1;jettySize=auto;html=1;" edge="1" parent="8MQQOa8CTJbcQH2kje4L-1" source="ahgxw3OeHbJRb-oqSajo-97">
          <mxGeometry x="0.463" y="23" relative="1" as="geometry">
            <mxPoint x="872.5" y="626" as="targetPoint" />
            <Array as="points">
              <mxPoint x="838" y="626" />
            </Array>
            <mxPoint x="-14" y="5" as="offset" />
          </mxGeometry>
        </mxCell>
        <mxCell id="ahgxw3OeHbJRb-oqSajo-102" style="edgeStyle=none;rounded=0;orthogonalLoop=1;jettySize=auto;html=1;" edge="1" parent="8MQQOa8CTJbcQH2kje4L-1" target="ahgxw3OeHbJRb-oqSajo-103">
          <mxGeometry relative="1" as="geometry">
            <mxPoint x="869" y="654" as="sourcePoint" />
            <mxPoint x="624.5" y="654" as="targetPoint" />
          </mxGeometry>
        </mxCell>
        <mxCell id="ahgxw3OeHbJRb-oqSajo-104" value="消息订阅" style="edgeLabel;html=1;align=center;verticalAlign=middle;resizable=0;points=[];" vertex="1" connectable="0" parent="ahgxw3OeHbJRb-oqSajo-102">
          <mxGeometry x="0.6989" y="-2" relative="1" as="geometry">
            <mxPoint x="2" y="-7" as="offset" />
          </mxGeometry>
        </mxCell>
        <mxCell id="ahgxw3OeHbJRb-oqSajo-107" style="edgeStyle=none;rounded=0;orthogonalLoop=1;jettySize=auto;html=1;entryX=0.691;entryY=0.222;entryDx=0;entryDy=0;entryPerimeter=0;" edge="1" parent="8MQQOa8CTJbcQH2kje4L-1">
          <mxGeometry relative="1" as="geometry">
            <mxPoint x="219" y="335.31999999999994" as="sourcePoint" />
            <mxPoint x="336.9100000000001" y="335.31999999999994" as="targetPoint" />
          </mxGeometry>
        </mxCell>
        <mxCell id="ahgxw3OeHbJRb-oqSajo-108" value="选择支付方式" style="edgeLabel;html=1;align=center;verticalAlign=middle;resizable=0;points=[];" vertex="1" connectable="0" parent="ahgxw3OeHbJRb-oqSajo-107">
          <mxGeometry x="0.135" y="2" relative="1" as="geometry">
            <mxPoint x="-10" y="-10.1" as="offset" />
          </mxGeometry>
        </mxCell>
        <mxCell id="ahgxw3OeHbJRb-oqSajo-109" value="选择支付方式" style="edgeStyle=none;rounded=0;orthogonalLoop=1;jettySize=auto;html=1;" edge="1" parent="8MQQOa8CTJbcQH2kje4L-1">
          <mxGeometry x="-0.0498" y="11" relative="1" as="geometry">
            <mxPoint x="340" y="352" as="sourcePoint" />
            <mxPoint x="470.5" y="352" as="targetPoint" />
            <mxPoint y="1" as="offset" />
          </mxGeometry>
        </mxCell>
        <mxCell id="ahgxw3OeHbJRb-oqSajo-112" style="edgeStyle=none;rounded=0;orthogonalLoop=1;jettySize=auto;html=1;" edge="1" parent="8MQQOa8CTJbcQH2kje4L-1">
          <mxGeometry relative="1" as="geometry">
            <mxPoint x="476" y="360.5" as="sourcePoint" />
            <mxPoint x="997" y="360.5" as="targetPoint" />
          </mxGeometry>
        </mxCell>
        <mxCell id="ahgxw3OeHbJRb-oqSajo-113" value="生成支付单" style="edgeLabel;html=1;align=center;verticalAlign=middle;resizable=0;points=[];" vertex="1" connectable="0" parent="ahgxw3OeHbJRb-oqSajo-112">
          <mxGeometry x="0.8192" relative="1" as="geometry">
            <mxPoint x="-10" y="-9.5" as="offset" />
          </mxGeometry>
        </mxCell>
        <mxCell id="ahgxw3OeHbJRb-oqSajo-114" style="edgeStyle=none;rounded=0;orthogonalLoop=1;jettySize=auto;html=1;" edge="1" parent="8MQQOa8CTJbcQH2kje4L-1">
          <mxGeometry relative="1" as="geometry">
            <mxPoint x="997" y="385.5" as="sourcePoint" />
            <mxPoint x="470.5" y="385.5" as="targetPoint" />
          </mxGeometry>
        </mxCell>
        <mxCell id="ahgxw3OeHbJRb-oqSajo-115" value="返回支付单信息" style="edgeLabel;html=1;align=center;verticalAlign=middle;resizable=0;points=[];" vertex="1" connectable="0" parent="ahgxw3OeHbJRb-oqSajo-114">
          <mxGeometry x="0.7021" y="-2" relative="1" as="geometry">
            <mxPoint x="-2" y="-10.5" as="offset" />
          </mxGeometry>
        </mxCell>
        <mxCell id="ahgxw3OeHbJRb-oqSajo-116" style="edgeStyle=none;rounded=0;orthogonalLoop=1;jettySize=auto;html=1;" edge="1" parent="8MQQOa8CTJbcQH2kje4L-1">
          <mxGeometry relative="1" as="geometry">
            <mxPoint x="466" y="399.5" as="sourcePoint" />
            <mxPoint x="334.5" y="399.5" as="targetPoint" />
          </mxGeometry>
        </mxCell>
        <mxCell id="ahgxw3OeHbJRb-oqSajo-117" value="返回支付单信息" style="edgeLabel;html=1;align=center;verticalAlign=middle;resizable=0;points=[];" vertex="1" connectable="0" parent="ahgxw3OeHbJRb-oqSajo-116">
          <mxGeometry x="-0.0557" y="-3" relative="1" as="geometry">
            <mxPoint y="-6" as="offset" />
          </mxGeometry>
        </mxCell>
        <mxCell id="ahgxw3OeHbJRb-oqSajo-118" style="edgeStyle=none;rounded=0;orthogonalLoop=1;jettySize=auto;html=1;" edge="1" parent="8MQQOa8CTJbcQH2kje4L-1">
          <mxGeometry relative="1" as="geometry">
            <mxPoint x="330" y="413" as="sourcePoint" />
            <mxPoint x="214" y="413" as="targetPoint" />
          </mxGeometry>
        </mxCell>
        <mxCell id="ahgxw3OeHbJRb-oqSajo-119" value="返回支付单信息" style="edgeLabel;html=1;align=center;verticalAlign=middle;resizable=0;points=[];" vertex="1" connectable="0" parent="ahgxw3OeHbJRb-oqSajo-118">
          <mxGeometry x="-0.2899" y="-1" relative="1" as="geometry">
            <mxPoint x="-16" y="-11" as="offset" />
          </mxGeometry>
        </mxCell>
      </root>
    </mxGraphModel>
  </diagram>
  <diagram id="Up3XQKxG3ziaL7S9gXTv" name="促销计算">
    <mxGraphModel dx="1385" dy="799" grid="1" gridSize="10" guides="1" tooltips="1" connect="1" arrows="1" fold="1" page="1" pageScale="1" pageWidth="827" pageHeight="1169" math="0" shadow="0">
      <root>
        <mxCell id="964YODZbyY15BJucSyUl-0" />
        <mxCell id="964YODZbyY15BJucSyUl-1" parent="964YODZbyY15BJucSyUl-0" />
        <mxCell id="bJXFUkttQiSa3amCciAw-0" value="&lt;b&gt;:订单&lt;br&gt;管理前台&lt;/b&gt;" style="shape=umlLifeline;perimeter=lifelinePerimeter;whiteSpace=wrap;html=1;container=1;collapsible=0;recursiveResize=0;outlineConnect=0;fillColor=#ffffff;" vertex="1" parent="964YODZbyY15BJucSyUl-1">
          <mxGeometry x="40" y="40" width="100" height="1320" as="geometry" />
        </mxCell>
        <mxCell id="bJXFUkttQiSa3amCciAw-1" value="" style="html=1;points=[];perimeter=orthogonalPerimeter;strokeColor=#000000;fillColor=#ffffff;" vertex="1" parent="bJXFUkttQiSa3amCciAw-0">
          <mxGeometry x="45" y="60" width="10" height="1170" as="geometry" />
        </mxCell>
        <mxCell id="bJXFUkttQiSa3amCciAw-2" value=":&lt;span style=&quot;font-weight: 700 ; background-color: rgb(255 , 255 , 255)&quot;&gt;PromotionCalculator&lt;/span&gt;" style="shape=umlLifeline;perimeter=lifelinePerimeter;whiteSpace=wrap;html=1;container=1;collapsible=0;recursiveResize=0;outlineConnect=0;fillColor=#ffffff;" vertex="1" parent="964YODZbyY15BJucSyUl-1">
          <mxGeometry x="180" y="40" width="150" height="1260" as="geometry" />
        </mxCell>
        <mxCell id="bJXFUkttQiSa3amCciAw-3" value="" style="html=1;points=[];perimeter=orthogonalPerimeter;strokeColor=#000000;fillColor=#ffffff;" vertex="1" parent="bJXFUkttQiSa3amCciAw-2">
          <mxGeometry x="70" y="60" width="10" height="1140" as="geometry" />
        </mxCell>
        <mxCell id="bJXFUkttQiSa3amCciAw-11" style="edgeStyle=none;rounded=0;orthogonalLoop=1;jettySize=auto;html=1;" edge="1" parent="bJXFUkttQiSa3amCciAw-2" target="bJXFUkttQiSa3amCciAw-27">
          <mxGeometry relative="1" as="geometry">
            <mxPoint x="80" y="150" as="sourcePoint" />
            <mxPoint x="294.5" y="150" as="targetPoint" />
            <Array as="points">
              <mxPoint x="100" y="150" />
              <mxPoint x="200" y="150" />
            </Array>
          </mxGeometry>
        </mxCell>
        <mxCell id="bJXFUkttQiSa3amCciAw-12" value="加载无门槛优惠列表" style="edgeLabel;html=1;align=center;verticalAlign=middle;resizable=0;points=[];" vertex="1" connectable="0" parent="bJXFUkttQiSa3amCciAw-11">
          <mxGeometry x="-0.0272" relative="1" as="geometry">
            <mxPoint x="36" y="-10" as="offset" />
          </mxGeometry>
        </mxCell>
        <mxCell id="bJXFUkttQiSa3amCciAw-8" style="edgeStyle=none;rounded=0;orthogonalLoop=1;jettySize=auto;html=1;" edge="1" parent="bJXFUkttQiSa3amCciAw-2" target="bJXFUkttQiSa3amCciAw-18">
          <mxGeometry relative="1" as="geometry">
            <mxPoint x="80" y="85" as="sourcePoint" />
            <mxPoint x="295" y="85" as="targetPoint" />
            <Array as="points">
              <mxPoint x="100" y="85" />
              <mxPoint x="200" y="85" />
            </Array>
          </mxGeometry>
        </mxCell>
        <mxCell id="bJXFUkttQiSa3amCciAw-9" value="&lt;div style=&quot;text-align: left&quot;&gt;&lt;span style=&quot;font-size: 12px&quot;&gt;根据优惠券ids加载优惠券列表&lt;/span&gt;&lt;/div&gt;" style="edgeLabel;html=1;align=center;verticalAlign=middle;resizable=0;points=[];" vertex="1" connectable="0" parent="bJXFUkttQiSa3amCciAw-8">
          <mxGeometry x="-0.1454" relative="1" as="geometry">
            <mxPoint x="28" y="-10" as="offset" />
          </mxGeometry>
        </mxCell>
        <mxCell id="bJXFUkttQiSa3amCciAw-4" style="edgeStyle=none;rounded=0;orthogonalLoop=1;jettySize=auto;html=1;" edge="1" parent="964YODZbyY15BJucSyUl-1">
          <mxGeometry relative="1" as="geometry">
            <mxPoint x="90" y="110" as="sourcePoint" />
            <mxPoint x="259" y="110" as="targetPoint" />
          </mxGeometry>
        </mxCell>
        <mxCell id="bJXFUkttQiSa3amCciAw-5" value="计算促销" style="edgeLabel;html=1;align=center;verticalAlign=middle;resizable=0;points=[];" vertex="1" connectable="0" parent="bJXFUkttQiSa3amCciAw-4">
          <mxGeometry x="0.2611" y="2" relative="1" as="geometry">
            <mxPoint y="-8" as="offset" />
          </mxGeometry>
        </mxCell>
        <mxCell id="bJXFUkttQiSa3amCciAw-17" value=":&lt;span style=&quot;font-weight: 700 ; background-color: rgb(255 , 255 , 255)&quot;&gt;PromotionLoader&lt;/span&gt;" style="shape=umlLifeline;perimeter=lifelinePerimeter;whiteSpace=wrap;html=1;container=1;collapsible=0;recursiveResize=0;outlineConnect=0;fillColor=#ffffff;" vertex="1" parent="964YODZbyY15BJucSyUl-1">
          <mxGeometry x="430" y="40" width="150" height="1260" as="geometry" />
        </mxCell>
        <mxCell id="bJXFUkttQiSa3amCciAw-18" value="" style="html=1;points=[];perimeter=orthogonalPerimeter;strokeColor=#000000;fillColor=#ffffff;" vertex="1" parent="bJXFUkttQiSa3amCciAw-17">
          <mxGeometry x="70" y="70" width="10" height="50" as="geometry" />
        </mxCell>
        <mxCell id="bJXFUkttQiSa3amCciAw-27" value="" style="html=1;points=[];perimeter=orthogonalPerimeter;strokeColor=#000000;fillColor=#ffffff;" vertex="1" parent="bJXFUkttQiSa3amCciAw-17">
          <mxGeometry x="70" y="140" width="10" height="50" as="geometry" />
        </mxCell>
        <mxCell id="bJXFUkttQiSa3amCciAw-30" value="" style="html=1;points=[];perimeter=orthogonalPerimeter;strokeColor=#000000;fillColor=#ffffff;" vertex="1" parent="bJXFUkttQiSa3amCciAw-17">
          <mxGeometry x="70" y="218" width="10" height="50" as="geometry" />
        </mxCell>
        <mxCell id="bJXFUkttQiSa3amCciAw-25" style="edgeStyle=none;rounded=0;orthogonalLoop=1;jettySize=auto;html=1;exitX=-0.281;exitY=0.849;exitDx=0;exitDy=0;exitPerimeter=0;" edge="1" parent="964YODZbyY15BJucSyUl-1" source="bJXFUkttQiSa3amCciAw-18">
          <mxGeometry relative="1" as="geometry">
            <mxPoint x="470" y="155" as="sourcePoint" />
            <mxPoint x="254.5" y="155" as="targetPoint" />
          </mxGeometry>
        </mxCell>
        <mxCell id="bJXFUkttQiSa3amCciAw-26" value="返回优惠券列表" style="edgeLabel;html=1;align=center;verticalAlign=middle;resizable=0;points=[];" vertex="1" connectable="0" parent="bJXFUkttQiSa3amCciAw-25">
          <mxGeometry x="-0.4728" y="-2" relative="1" as="geometry">
            <mxPoint x="-103" y="-10" as="offset" />
          </mxGeometry>
        </mxCell>
        <mxCell id="bJXFUkttQiSa3amCciAw-28" style="edgeStyle=none;rounded=0;orthogonalLoop=1;jettySize=auto;html=1;exitX=0;exitY=0.9;exitDx=0;exitDy=0;exitPerimeter=0;" edge="1" parent="964YODZbyY15BJucSyUl-1" source="bJXFUkttQiSa3amCciAw-27">
          <mxGeometry relative="1" as="geometry">
            <mxPoint x="470" y="225" as="sourcePoint" />
            <mxPoint x="254.5" y="225" as="targetPoint" />
          </mxGeometry>
        </mxCell>
        <mxCell id="bJXFUkttQiSa3amCciAw-29" value="返回无门槛优惠列表" style="edgeLabel;html=1;align=center;verticalAlign=middle;resizable=0;points=[];" vertex="1" connectable="0" parent="bJXFUkttQiSa3amCciAw-28">
          <mxGeometry x="0.446" y="-4" relative="1" as="geometry">
            <mxPoint x="3" y="-9" as="offset" />
          </mxGeometry>
        </mxCell>
        <mxCell id="bJXFUkttQiSa3amCciAw-15" style="edgeStyle=none;rounded=0;orthogonalLoop=1;jettySize=auto;html=1;" edge="1" parent="964YODZbyY15BJucSyUl-1">
          <mxGeometry relative="1" as="geometry">
            <mxPoint x="260" y="270" as="sourcePoint" />
            <mxPoint x="500" y="270" as="targetPoint" />
            <Array as="points" />
          </mxGeometry>
        </mxCell>
        <mxCell id="bJXFUkttQiSa3amCciAw-31" value="根据商品信息加载促销列表&lt;br&gt;（如果支持用户选择直接使用促销ids）" style="edgeLabel;html=1;align=center;verticalAlign=middle;resizable=0;points=[];" vertex="1" connectable="0" parent="bJXFUkttQiSa3amCciAw-15">
          <mxGeometry x="0.13" y="1" relative="1" as="geometry">
            <mxPoint x="-21" y="-19" as="offset" />
          </mxGeometry>
        </mxCell>
        <mxCell id="bJXFUkttQiSa3amCciAw-32" style="edgeStyle=none;rounded=0;orthogonalLoop=1;jettySize=auto;html=1;" edge="1" parent="964YODZbyY15BJucSyUl-1">
          <mxGeometry relative="1" as="geometry">
            <mxPoint x="500" y="303" as="sourcePoint" />
            <mxPoint x="254.5" y="303" as="targetPoint" />
          </mxGeometry>
        </mxCell>
        <mxCell id="bJXFUkttQiSa3amCciAw-33" value="返回促销列表" style="edgeLabel;html=1;align=center;verticalAlign=middle;resizable=0;points=[];" vertex="1" connectable="0" parent="bJXFUkttQiSa3amCciAw-32">
          <mxGeometry x="-0.3417" y="-4" relative="1" as="geometry">
            <mxPoint x="-109" y="-9" as="offset" />
          </mxGeometry>
        </mxCell>
        <mxCell id="bJXFUkttQiSa3amCciAw-34" value=":&lt;span style=&quot;font-weight: 700 ; background-color: rgb(255 , 255 , 255)&quot;&gt;PolicyCollection&lt;/span&gt;" style="shape=umlLifeline;perimeter=lifelinePerimeter;whiteSpace=wrap;html=1;container=1;collapsible=0;recursiveResize=0;outlineConnect=0;fillColor=#ffffff;" vertex="1" parent="964YODZbyY15BJucSyUl-1">
          <mxGeometry x="630" y="40" width="150" height="1260" as="geometry" />
        </mxCell>
        <mxCell id="bJXFUkttQiSa3amCciAw-37" value="" style="html=1;points=[];perimeter=orthogonalPerimeter;strokeColor=#000000;fillColor=#ffffff;" vertex="1" parent="bJXFUkttQiSa3amCciAw-34">
          <mxGeometry x="70" y="280" width="10" height="420" as="geometry" />
        </mxCell>
        <mxCell id="bJXFUkttQiSa3amCciAw-82" value="" style="html=1;points=[];perimeter=orthogonalPerimeter;strokeColor=#000000;fillColor=#ffffff;" vertex="1" parent="bJXFUkttQiSa3amCciAw-34">
          <mxGeometry x="70" y="770" width="10" height="400" as="geometry" />
        </mxCell>
        <mxCell id="bJXFUkttQiSa3amCciAw-96" value="策略再过滤（如选最大优惠）" style="edgeStyle=none;rounded=0;orthogonalLoop=1;jettySize=auto;html=1;" edge="1" parent="bJXFUkttQiSa3amCciAw-34">
          <mxGeometry x="0.0769" y="80" relative="1" as="geometry">
            <mxPoint x="80" y="960" as="sourcePoint" />
            <mxPoint x="80" y="1050" as="targetPoint" />
            <Array as="points">
              <mxPoint x="100" y="960" />
              <mxPoint x="100" y="1050" />
            </Array>
            <mxPoint as="offset" />
          </mxGeometry>
        </mxCell>
        <mxCell id="bJXFUkttQiSa3amCciAw-38" style="edgeStyle=none;rounded=0;orthogonalLoop=1;jettySize=auto;html=1;" edge="1" parent="964YODZbyY15BJucSyUl-1">
          <mxGeometry relative="1" as="geometry">
            <mxPoint x="260" y="330" as="sourcePoint" />
            <mxPoint x="700" y="330" as="targetPoint" />
          </mxGeometry>
        </mxCell>
        <mxCell id="bJXFUkttQiSa3amCciAw-39" value="策略过滤" style="edgeLabel;html=1;align=center;verticalAlign=middle;resizable=0;points=[];" vertex="1" connectable="0" parent="bJXFUkttQiSa3amCciAw-38">
          <mxGeometry x="0.5182" y="2" relative="1" as="geometry">
            <mxPoint x="56" y="-8" as="offset" />
          </mxGeometry>
        </mxCell>
        <mxCell id="bJXFUkttQiSa3amCciAw-40" value="&lt;b&gt;:Policy&lt;/b&gt;" style="shape=umlLifeline;perimeter=lifelinePerimeter;whiteSpace=wrap;html=1;container=1;collapsible=0;recursiveResize=0;outlineConnect=0;fillColor=#ffffff;" vertex="1" parent="964YODZbyY15BJucSyUl-1">
          <mxGeometry x="827" y="40" width="150" height="1260" as="geometry" />
        </mxCell>
        <mxCell id="bJXFUkttQiSa3amCciAw-41" value="" style="html=1;points=[];perimeter=orthogonalPerimeter;strokeColor=#000000;fillColor=#ffffff;" vertex="1" parent="bJXFUkttQiSa3amCciAw-40">
          <mxGeometry x="70" y="290" width="10" height="410" as="geometry" />
        </mxCell>
        <mxCell id="bJXFUkttQiSa3amCciAw-85" value="" style="html=1;points=[];perimeter=orthogonalPerimeter;strokeColor=#000000;fillColor=#ffffff;" vertex="1" parent="bJXFUkttQiSa3amCciAw-40">
          <mxGeometry x="70" y="800" width="10" height="150" as="geometry" />
        </mxCell>
        <mxCell id="bJXFUkttQiSa3amCciAw-87" value="loadCalculator() // 加载计算器" style="edgeStyle=none;rounded=0;orthogonalLoop=1;jettySize=auto;html=1;exitX=0.819;exitY=0.261;exitDx=0;exitDy=0;exitPerimeter=0;" edge="1" parent="bJXFUkttQiSa3amCciAw-40" source="bJXFUkttQiSa3amCciAw-85" target="bJXFUkttQiSa3amCciAw-85">
          <mxGeometry x="0.4583" y="-84" relative="1" as="geometry">
            <Array as="points">
              <mxPoint x="100" y="838" />
              <mxPoint x="100" y="870" />
            </Array>
            <mxPoint x="83" y="74" as="offset" />
          </mxGeometry>
        </mxCell>
        <mxCell id="bJXFUkttQiSa3amCciAw-97" value="" style="html=1;points=[];perimeter=orthogonalPerimeter;strokeColor=#000000;fillColor=#ffffff;" vertex="1" parent="bJXFUkttQiSa3amCciAw-40">
          <mxGeometry x="70" y="1080" width="10" height="80" as="geometry" />
        </mxCell>
        <mxCell id="bJXFUkttQiSa3amCciAw-42" style="edgeStyle=none;rounded=0;orthogonalLoop=1;jettySize=auto;html=1;" edge="1" parent="964YODZbyY15BJucSyUl-1">
          <mxGeometry relative="1" as="geometry">
            <mxPoint x="710" y="345" as="sourcePoint" />
            <mxPoint x="901.5" y="345" as="targetPoint" />
          </mxGeometry>
        </mxCell>
        <mxCell id="bJXFUkttQiSa3amCciAw-43" value="filter($promotionRequest)" style="edgeLabel;html=1;align=center;verticalAlign=middle;resizable=0;points=[];" vertex="1" connectable="0" parent="bJXFUkttQiSa3amCciAw-42">
          <mxGeometry x="0.2021" y="2" relative="1" as="geometry">
            <mxPoint x="-15" y="-13" as="offset" />
          </mxGeometry>
        </mxCell>
        <mxCell id="bJXFUkttQiSa3amCciAw-44" value="&lt;b&gt;:UseageRule&lt;/b&gt;" style="shape=umlLifeline;perimeter=lifelinePerimeter;whiteSpace=wrap;html=1;container=1;collapsible=0;recursiveResize=0;outlineConnect=0;fillColor=#ffffff;" vertex="1" parent="964YODZbyY15BJucSyUl-1">
          <mxGeometry x="1040" y="40" width="150" height="1270" as="geometry" />
        </mxCell>
        <mxCell id="bJXFUkttQiSa3amCciAw-45" value="" style="html=1;points=[];perimeter=orthogonalPerimeter;strokeColor=#000000;fillColor=#ffffff;" vertex="1" parent="bJXFUkttQiSa3amCciAw-44">
          <mxGeometry x="70" y="310" width="10" height="340" as="geometry" />
        </mxCell>
        <mxCell id="bJXFUkttQiSa3amCciAw-47" value="getConditionList()" style="edgeStyle=none;rounded=0;orthogonalLoop=1;jettySize=auto;html=1;" edge="1" parent="bJXFUkttQiSa3amCciAw-44">
          <mxGeometry x="-0.3846" y="-50" relative="1" as="geometry">
            <mxPoint x="80" y="335" as="sourcePoint" />
            <mxPoint x="80" y="360" as="targetPoint" />
            <Array as="points">
              <mxPoint x="100" y="335" />
              <mxPoint x="100" y="360" />
            </Array>
            <mxPoint x="100" y="5" as="offset" />
          </mxGeometry>
        </mxCell>
        <mxCell id="bJXFUkttQiSa3amCciAw-46" value="filter($promotionRequest)" style="edgeStyle=none;rounded=0;orthogonalLoop=1;jettySize=auto;html=1;" edge="1" parent="964YODZbyY15BJucSyUl-1">
          <mxGeometry x="-0.0072" y="17" relative="1" as="geometry">
            <mxPoint x="907" y="357" as="sourcePoint" />
            <mxPoint x="1114.5" y="357" as="targetPoint" />
            <mxPoint as="offset" />
          </mxGeometry>
        </mxCell>
        <mxCell id="bJXFUkttQiSa3amCciAw-48" value="&lt;b&gt;:Condition&lt;/b&gt;" style="shape=umlLifeline;perimeter=lifelinePerimeter;whiteSpace=wrap;html=1;container=1;collapsible=0;recursiveResize=0;outlineConnect=0;fillColor=#ffffff;" vertex="1" parent="964YODZbyY15BJucSyUl-1">
          <mxGeometry x="1248" y="40" width="150" height="1240" as="geometry" />
        </mxCell>
        <mxCell id="bJXFUkttQiSa3amCciAw-49" value="" style="html=1;points=[];perimeter=orthogonalPerimeter;strokeColor=#000000;fillColor=#ffffff;" vertex="1" parent="bJXFUkttQiSa3amCciAw-48">
          <mxGeometry x="70" y="390" width="10" height="31" as="geometry" />
        </mxCell>
        <mxCell id="bJXFUkttQiSa3amCciAw-55" value="" style="html=1;points=[];perimeter=orthogonalPerimeter;strokeColor=#000000;fillColor=#ffffff;" vertex="1" parent="bJXFUkttQiSa3amCciAw-48">
          <mxGeometry x="70" y="460" width="10" height="50" as="geometry" />
        </mxCell>
        <mxCell id="bJXFUkttQiSa3amCciAw-61" value="" style="html=1;points=[];perimeter=orthogonalPerimeter;strokeColor=#000000;fillColor=#ffffff;" vertex="1" parent="bJXFUkttQiSa3amCciAw-48">
          <mxGeometry x="70" y="545" width="10" height="85" as="geometry" />
        </mxCell>
        <mxCell id="bJXFUkttQiSa3amCciAw-51" style="edgeStyle=none;rounded=0;orthogonalLoop=1;jettySize=auto;html=1;" edge="1" parent="964YODZbyY15BJucSyUl-1">
          <mxGeometry relative="1" as="geometry">
            <mxPoint x="1120" y="436" as="sourcePoint" />
            <mxPoint x="1328" y="435" as="targetPoint" />
          </mxGeometry>
        </mxCell>
        <mxCell id="bJXFUkttQiSa3amCciAw-59" value="initRequired()&lt;br&gt;根据数据库配置初始化要求" style="edgeLabel;html=1;align=center;verticalAlign=middle;resizable=0;points=[];" vertex="1" connectable="0" parent="bJXFUkttQiSa3amCciAw-51">
          <mxGeometry x="-0.0497" y="1" relative="1" as="geometry">
            <mxPoint x="-8.99" y="-18.52" as="offset" />
          </mxGeometry>
        </mxCell>
        <mxCell id="bJXFUkttQiSa3amCciAw-53" style="edgeStyle=none;rounded=0;orthogonalLoop=1;jettySize=auto;html=1;" edge="1" parent="964YODZbyY15BJucSyUl-1">
          <mxGeometry relative="1" as="geometry">
            <mxPoint x="1318" y="458" as="sourcePoint" />
            <mxPoint x="1120" y="458" as="targetPoint" />
          </mxGeometry>
        </mxCell>
        <mxCell id="bJXFUkttQiSa3amCciAw-56" style="edgeStyle=none;rounded=0;orthogonalLoop=1;jettySize=auto;html=1;entryX=0.2;entryY=0.375;entryDx=0;entryDy=0;entryPerimeter=0;" edge="1" parent="964YODZbyY15BJucSyUl-1">
          <mxGeometry relative="1" as="geometry">
            <mxPoint x="1120" y="518" as="sourcePoint" />
            <mxPoint x="1320" y="518" as="targetPoint" />
          </mxGeometry>
        </mxCell>
        <mxCell id="bJXFUkttQiSa3amCciAw-58" value="initRequest($promotionRequest)&lt;br&gt;根据请求参数初始化条件" style="edgeLabel;html=1;align=center;verticalAlign=middle;resizable=0;points=[];" vertex="1" connectable="0" parent="bJXFUkttQiSa3amCciAw-56">
          <mxGeometry x="0.0874" relative="1" as="geometry">
            <mxPoint x="-9" y="-18" as="offset" />
          </mxGeometry>
        </mxCell>
        <mxCell id="bJXFUkttQiSa3amCciAw-60" style="edgeStyle=none;rounded=0;orthogonalLoop=1;jettySize=auto;html=1;" edge="1" parent="964YODZbyY15BJucSyUl-1">
          <mxGeometry relative="1" as="geometry">
            <mxPoint x="1318" y="540" as="sourcePoint" />
            <mxPoint x="1114.5" y="540" as="targetPoint" />
          </mxGeometry>
        </mxCell>
        <mxCell id="bJXFUkttQiSa3amCciAw-62" style="edgeStyle=none;rounded=0;orthogonalLoop=1;jettySize=auto;html=1;entryX=0.2;entryY=0.556;entryDx=0;entryDy=0;entryPerimeter=0;" edge="1" parent="964YODZbyY15BJucSyUl-1">
          <mxGeometry relative="1" as="geometry">
            <mxPoint x="1120" y="597.02" as="sourcePoint" />
            <mxPoint x="1320" y="597.02" as="targetPoint" />
          </mxGeometry>
        </mxCell>
        <mxCell id="bJXFUkttQiSa3amCciAw-63" value="filter() 根据请求和配置进行条件过滤" style="edgeLabel;html=1;align=center;verticalAlign=middle;resizable=0;points=[];" vertex="1" connectable="0" parent="bJXFUkttQiSa3amCciAw-62">
          <mxGeometry x="0.2083" y="1" relative="1" as="geometry">
            <mxPoint x="-21" y="-11.02" as="offset" />
          </mxGeometry>
        </mxCell>
        <mxCell id="bJXFUkttQiSa3amCciAw-64" value=":&lt;span style=&quot;font-weight: 700 ; background-color: rgb(255 , 255 , 255)&quot;&gt;ValueFilter&lt;/span&gt;" style="shape=umlLifeline;perimeter=lifelinePerimeter;whiteSpace=wrap;html=1;container=1;collapsible=0;recursiveResize=0;outlineConnect=0;fillColor=#ffffff;" vertex="1" parent="964YODZbyY15BJucSyUl-1">
          <mxGeometry x="1440" y="40" width="150" height="1240" as="geometry" />
        </mxCell>
        <mxCell id="bJXFUkttQiSa3amCciAw-67" value="" style="html=1;points=[];perimeter=orthogonalPerimeter;strokeColor=#000000;fillColor=#ffffff;" vertex="1" parent="bJXFUkttQiSa3amCciAw-64">
          <mxGeometry x="70" y="560" width="10" height="50" as="geometry" />
        </mxCell>
        <mxCell id="bJXFUkttQiSa3amCciAw-68" style="edgeStyle=none;rounded=0;orthogonalLoop=1;jettySize=auto;html=1;" edge="1" parent="964YODZbyY15BJucSyUl-1">
          <mxGeometry relative="1" as="geometry">
            <mxPoint x="1328" y="611.5" as="sourcePoint" />
            <mxPoint x="1514.5" y="611.5" as="targetPoint" />
          </mxGeometry>
        </mxCell>
        <mxCell id="bJXFUkttQiSa3amCciAw-70" value="doFilter()" style="edgeLabel;html=1;align=center;verticalAlign=middle;resizable=0;points=[];" vertex="1" connectable="0" parent="bJXFUkttQiSa3amCciAw-68">
          <mxGeometry x="-0.023" y="4" relative="1" as="geometry">
            <mxPoint x="-9" y="-7.5" as="offset" />
          </mxGeometry>
        </mxCell>
        <mxCell id="bJXFUkttQiSa3amCciAw-69" style="edgeStyle=none;rounded=0;orthogonalLoop=1;jettySize=auto;html=1;" edge="1" parent="964YODZbyY15BJucSyUl-1">
          <mxGeometry relative="1" as="geometry">
            <mxPoint x="1510" y="638.5" as="sourcePoint" />
            <mxPoint x="1322.5" y="638.5" as="targetPoint" />
          </mxGeometry>
        </mxCell>
        <mxCell id="bJXFUkttQiSa3amCciAw-71" value="bool 过滤结果" style="edgeLabel;html=1;align=center;verticalAlign=middle;resizable=0;points=[];" vertex="1" connectable="0" parent="bJXFUkttQiSa3amCciAw-69">
          <mxGeometry x="0.0122" y="-3" relative="1" as="geometry">
            <mxPoint x="-5" y="-6" as="offset" />
          </mxGeometry>
        </mxCell>
        <mxCell id="bJXFUkttQiSa3amCciAw-72" style="edgeStyle=none;rounded=0;orthogonalLoop=1;jettySize=auto;html=1;" edge="1" parent="964YODZbyY15BJucSyUl-1">
          <mxGeometry relative="1" as="geometry">
            <mxPoint x="1318" y="653.5" as="sourcePoint" />
            <mxPoint x="1114.5" y="653.5" as="targetPoint" />
          </mxGeometry>
        </mxCell>
        <mxCell id="bJXFUkttQiSa3amCciAw-74" value="返回过滤结果" style="edgeLabel;html=1;align=center;verticalAlign=middle;resizable=0;points=[];" vertex="1" connectable="0" parent="bJXFUkttQiSa3amCciAw-72">
          <mxGeometry x="0.0488" y="-2" relative="1" as="geometry">
            <mxPoint y="-11.5" as="offset" />
          </mxGeometry>
        </mxCell>
        <mxCell id="bJXFUkttQiSa3amCciAw-73" style="edgeStyle=none;rounded=0;orthogonalLoop=1;jettySize=auto;html=1;" edge="1" parent="964YODZbyY15BJucSyUl-1">
          <mxGeometry relative="1" as="geometry">
            <mxPoint x="1110" y="680" as="sourcePoint" />
            <mxPoint x="901.5" y="680" as="targetPoint" />
          </mxGeometry>
        </mxCell>
        <mxCell id="bJXFUkttQiSa3amCciAw-75" value="返回过滤结果" style="edgeLabel;html=1;align=center;verticalAlign=middle;resizable=0;points=[];" vertex="1" connectable="0" parent="bJXFUkttQiSa3amCciAw-73">
          <mxGeometry x="0.0045" y="-2" relative="1" as="geometry">
            <mxPoint y="-8" as="offset" />
          </mxGeometry>
        </mxCell>
        <mxCell id="bJXFUkttQiSa3amCciAw-76" value="返回过滤结果" style="edgeStyle=none;rounded=0;orthogonalLoop=1;jettySize=auto;html=1;" edge="1" parent="964YODZbyY15BJucSyUl-1">
          <mxGeometry x="0.0078" y="-16" relative="1" as="geometry">
            <mxPoint x="897" y="706" as="sourcePoint" />
            <mxPoint x="704.5" y="706" as="targetPoint" />
            <mxPoint as="offset" />
          </mxGeometry>
        </mxCell>
        <mxCell id="bJXFUkttQiSa3amCciAw-80" style="edgeStyle=none;rounded=0;orthogonalLoop=1;jettySize=auto;html=1;" edge="1" parent="964YODZbyY15BJucSyUl-1">
          <mxGeometry relative="1" as="geometry">
            <mxPoint x="700" y="721" as="sourcePoint" />
            <mxPoint x="254.5" y="721" as="targetPoint" />
          </mxGeometry>
        </mxCell>
        <mxCell id="bJXFUkttQiSa3amCciAw-81" value="返回策略列表" style="edgeLabel;html=1;align=center;verticalAlign=middle;resizable=0;points=[];" vertex="1" connectable="0" parent="bJXFUkttQiSa3amCciAw-80">
          <mxGeometry x="0.6402" y="-3" relative="1" as="geometry">
            <mxPoint x="-5" y="-12" as="offset" />
          </mxGeometry>
        </mxCell>
        <mxCell id="bJXFUkttQiSa3amCciAw-83" style="edgeStyle=none;rounded=0;orthogonalLoop=1;jettySize=auto;html=1;entryX=0.001;entryY=0.153;entryDx=0;entryDy=0;entryPerimeter=0;" edge="1" parent="964YODZbyY15BJucSyUl-1">
          <mxGeometry relative="1" as="geometry">
            <mxPoint x="260" y="822.1300000000001" as="sourcePoint" />
            <mxPoint x="700.01" y="822.1300000000001" as="targetPoint" />
          </mxGeometry>
        </mxCell>
        <mxCell id="bJXFUkttQiSa3amCciAw-84" value="calculate4Order($orderPromotionItem)&amp;nbsp; //预计算" style="edgeLabel;html=1;align=center;verticalAlign=middle;resizable=0;points=[];" vertex="1" connectable="0" parent="bJXFUkttQiSa3amCciAw-83">
          <mxGeometry x="0.4364" y="2" relative="1" as="geometry">
            <mxPoint x="-16" y="-10.13" as="offset" />
          </mxGeometry>
        </mxCell>
        <mxCell id="bJXFUkttQiSa3amCciAw-86" value="preivew($orderPromotionItem) &lt;br&gt;// 预计算" style="edgeStyle=none;rounded=0;orthogonalLoop=1;jettySize=auto;html=1;" edge="1" parent="964YODZbyY15BJucSyUl-1">
          <mxGeometry x="0.0444" y="15" relative="1" as="geometry">
            <mxPoint x="710" y="855" as="sourcePoint" />
            <mxPoint x="901.5" y="855" as="targetPoint" />
            <mxPoint as="offset" />
          </mxGeometry>
        </mxCell>
        <mxCell id="bJXFUkttQiSa3amCciAw-88" value=":&lt;span style=&quot;font-weight: 700 ; background-color: rgb(255 , 255 , 255)&quot;&gt;Calculator&lt;/span&gt;" style="shape=umlLifeline;perimeter=lifelinePerimeter;whiteSpace=wrap;html=1;container=1;collapsible=0;recursiveResize=0;outlineConnect=0;fillColor=#ffffff;" vertex="1" parent="964YODZbyY15BJucSyUl-1">
          <mxGeometry x="1640" y="40" width="150" height="1240" as="geometry" />
        </mxCell>
        <mxCell id="bJXFUkttQiSa3amCciAw-89" value="" style="html=1;points=[];perimeter=orthogonalPerimeter;strokeColor=#000000;fillColor=#ffffff;" vertex="1" parent="bJXFUkttQiSa3amCciAw-88">
          <mxGeometry x="70" y="880" width="10" height="50" as="geometry" />
        </mxCell>
        <mxCell id="bJXFUkttQiSa3amCciAw-99" value="" style="html=1;points=[];perimeter=orthogonalPerimeter;strokeColor=#000000;fillColor=#ffffff;" vertex="1" parent="bJXFUkttQiSa3amCciAw-88">
          <mxGeometry x="70" y="1090" width="10" height="50" as="geometry" />
        </mxCell>
        <mxCell id="bJXFUkttQiSa3amCciAw-90" style="edgeStyle=none;rounded=0;orthogonalLoop=1;jettySize=auto;html=1;" edge="1" parent="964YODZbyY15BJucSyUl-1">
          <mxGeometry relative="1" as="geometry">
            <mxPoint x="907" y="930" as="sourcePoint" />
            <mxPoint x="1714.5" y="930" as="targetPoint" />
          </mxGeometry>
        </mxCell>
        <mxCell id="bJXFUkttQiSa3amCciAw-91" value="preview()" style="edgeLabel;html=1;align=center;verticalAlign=middle;resizable=0;points=[];" vertex="1" connectable="0" parent="bJXFUkttQiSa3amCciAw-90">
          <mxGeometry x="-0.0489" y="2" relative="1" as="geometry">
            <mxPoint x="369" y="-8" as="offset" />
          </mxGeometry>
        </mxCell>
        <mxCell id="bJXFUkttQiSa3amCciAw-92" style="edgeStyle=none;rounded=0;orthogonalLoop=1;jettySize=auto;html=1;" edge="1" parent="964YODZbyY15BJucSyUl-1">
          <mxGeometry relative="1" as="geometry">
            <mxPoint x="1710" y="955" as="sourcePoint" />
            <mxPoint x="901.5" y="955" as="targetPoint" />
          </mxGeometry>
        </mxCell>
        <mxCell id="bJXFUkttQiSa3amCciAw-93" style="edgeStyle=none;rounded=0;orthogonalLoop=1;jettySize=auto;html=1;" edge="1" parent="964YODZbyY15BJucSyUl-1">
          <mxGeometry relative="1" as="geometry">
            <mxPoint x="897" y="975" as="sourcePoint" />
            <mxPoint x="704.5" y="975" as="targetPoint" />
          </mxGeometry>
        </mxCell>
        <mxCell id="bJXFUkttQiSa3amCciAw-98" value="apply($orderPromotionItem)&lt;br&gt;// 促销生效" style="edgeStyle=none;rounded=0;orthogonalLoop=1;jettySize=auto;html=1;entryX=0.3;entryY=0.25;entryDx=0;entryDy=0;entryPerimeter=0;" edge="1" parent="964YODZbyY15BJucSyUl-1">
          <mxGeometry x="-0.0526" y="18" relative="1" as="geometry">
            <mxPoint x="710" y="1128" as="sourcePoint" />
            <mxPoint x="900" y="1128" as="targetPoint" />
            <mxPoint as="offset" />
          </mxGeometry>
        </mxCell>
        <mxCell id="bJXFUkttQiSa3amCciAw-100" style="edgeStyle=none;rounded=0;orthogonalLoop=1;jettySize=auto;html=1;" edge="1" parent="964YODZbyY15BJucSyUl-1">
          <mxGeometry relative="1" as="geometry">
            <mxPoint x="907" y="1140" as="sourcePoint" />
            <mxPoint x="1714.5" y="1140" as="targetPoint" />
          </mxGeometry>
        </mxCell>
        <mxCell id="bJXFUkttQiSa3amCciAw-101" value="apply()" style="edgeLabel;html=1;align=center;verticalAlign=middle;resizable=0;points=[];" vertex="1" connectable="0" parent="bJXFUkttQiSa3amCciAw-100">
          <mxGeometry x="0.818" relative="1" as="geometry">
            <mxPoint x="-1" y="-10" as="offset" />
          </mxGeometry>
        </mxCell>
        <mxCell id="bJXFUkttQiSa3amCciAw-102" style="edgeStyle=none;rounded=0;orthogonalLoop=1;jettySize=auto;html=1;" edge="1" parent="964YODZbyY15BJucSyUl-1">
          <mxGeometry relative="1" as="geometry">
            <mxPoint x="1710" y="1169" as="sourcePoint" />
            <mxPoint x="901.3235294117649" y="1169" as="targetPoint" />
          </mxGeometry>
        </mxCell>
        <mxCell id="bJXFUkttQiSa3amCciAw-103" style="edgeStyle=none;rounded=0;orthogonalLoop=1;jettySize=auto;html=1;" edge="1" parent="964YODZbyY15BJucSyUl-1">
          <mxGeometry relative="1" as="geometry">
            <mxPoint x="897" y="1190" as="sourcePoint" />
            <mxPoint x="704.3235294117649" y="1190" as="targetPoint" />
          </mxGeometry>
        </mxCell>
        <mxCell id="bJXFUkttQiSa3amCciAw-105" style="edgeStyle=none;rounded=0;orthogonalLoop=1;jettySize=auto;html=1;" edge="1" parent="964YODZbyY15BJucSyUl-1">
          <mxGeometry relative="1" as="geometry">
            <mxPoint x="700" y="1200" as="sourcePoint" />
            <mxPoint x="254.32352941176464" y="1200" as="targetPoint" />
          </mxGeometry>
        </mxCell>
        <mxCell id="bJXFUkttQiSa3amCciAw-106" style="edgeStyle=none;rounded=0;orthogonalLoop=1;jettySize=auto;html=1;" edge="1" parent="964YODZbyY15BJucSyUl-1">
          <mxGeometry relative="1" as="geometry">
            <mxPoint x="250" y="1230.0000000000002" as="sourcePoint" />
            <mxPoint x="89.32352941176464" y="1230.0000000000002" as="targetPoint" />
          </mxGeometry>
        </mxCell>
      </root>
    </mxGraphModel>
  </diagram>
</mxfile>
